M48
; DRILL file {KiCad 7.0.10} date Thu Sep 26 22:41:23 2024
; FORMAT={-:-/ absolute / inch / decimal}
; #@! TF.CreationDate,2024-09-26T22:41:23+03:00
; #@! TF.GenerationSoftware,Kicad,Pcbnew,7.0.10
; #@! TF.FileFunction,Plated,1,2,PTH
FMAT,2
INCH
; #@! TA.AperFunction,Plated,PTH,ComponentDrill
T1C0.0315
; #@! TA.AperFunction,Plated,PTH,ComponentDrill
T2C0.0374
; #@! TA.AperFunction,Plated,PTH,ComponentDrill
T3C0.0394
; #@! TA.AperFunction,Plated,PTH,ViaDrill
T4C0.1378
%
G90
G05
T1
X1.6679Y-1.3373
X1.6679Y-1.4373
X1.6679Y-1.5373
X1.6679Y-1.6373
X1.6679Y-1.7373
X1.6679Y-1.8373
X1.6679Y-1.9373
X1.6679Y-2.0373
X1.6679Y-2.2873
X1.6679Y-2.3873
X1.6679Y-2.4873
X1.6679Y-2.5873
X1.6679Y-2.6873
X1.6679Y-2.7873
X1.6679Y-2.8873
X1.6679Y-2.9873
X2.1679Y-1.3373
X2.1679Y-1.4373
X2.1679Y-1.5373
X2.1679Y-1.6373
X2.1679Y-1.7373
X2.1679Y-1.8373
X2.1679Y-1.9373
X2.1679Y-2.0373
X2.1679Y-2.2873
X2.1679Y-2.3873
X2.1679Y-2.4873
X2.1679Y-2.5873
X2.1679Y-2.6873
X2.1679Y-2.7873
X2.1679Y-2.8873
X2.1679Y-2.9873
X5.9379Y-2.0973
X5.9379Y-2.4973
X6.2379Y-2.1373
X6.2379Y-2.5373
X6.6579Y-2.1373
X6.6579Y-2.5373
X7.0979Y-1.4773
X7.4979Y-1.4773
X7.7579Y-1.3573
X7.7579Y-1.4573
X7.7579Y-1.5573
X7.7579Y-1.6573
X7.7579Y-1.7573
X7.7579Y-1.8573
X7.7579Y-1.9573
X7.7579Y-2.0573
X7.7579Y-2.3073
X7.7579Y-2.4073
X7.7579Y-2.5073
X7.7579Y-2.6073
X7.7579Y-2.7073
X7.7579Y-2.8073
X7.7579Y-2.9073
X7.7579Y-3.0073
X8.2579Y-1.3573
X8.2579Y-1.4573
X8.2579Y-1.5573
X8.2579Y-1.6573
X8.2579Y-1.7573
X8.2579Y-1.8573
X8.2579Y-1.9573
X8.2579Y-2.0573
X8.2579Y-2.3073
X8.2579Y-2.4073
X8.2579Y-2.5073
X8.2579Y-2.6073
X8.2579Y-2.7073
X8.2579Y-2.8073
X8.2579Y-2.9073
X8.2579Y-3.0073
T2
X1.4179Y-1.5389
X1.4179Y-1.6373
X1.4179Y-1.7357
X1.4179Y-1.8342
X1.4179Y-2.4889
X1.4179Y-2.5873
X1.4179Y-2.6857
X1.4179Y-2.7842
X4.4661Y-1.0773
X4.4661Y-1.1757
X4.4661Y-1.2742
X4.4661Y-1.3726
X4.8679Y-1.1489
X4.8679Y-1.2473
X4.8679Y-1.3457
X4.8679Y-1.4442
X4.8679Y-1.5426
X5.2661Y-1.1405
X5.2661Y-1.2389
X5.2661Y-1.3373
X5.2661Y-1.4357
X5.2661Y-1.5342
X6.3995Y-1.1455
X6.4979Y-1.1455
X6.5963Y-1.1455
X6.8795Y-1.1455
X6.9779Y-1.1455
X7.0763Y-1.1455
X7.3595Y-1.0455
X7.4579Y-1.0455
X7.5563Y-1.0455
X7.8395Y-1.0455
X7.9379Y-1.0455
X8.0363Y-1.0455
X8.5079Y-1.5573
X8.5079Y-1.6557
X8.5079Y-1.7542
X8.5079Y-1.8526
X8.5079Y-2.5073
X8.5079Y-2.6057
X8.5079Y-2.7042
X8.5079Y-2.8026
T3
X1.7195Y-1.0373
X1.8179Y-1.0373
X2.1195Y-1.0373
X2.2179Y-1.0373
X3.0179Y-1.3373
X3.0179Y-1.4373
X3.0179Y-1.5373
X3.0179Y-1.6373
X3.0179Y-1.7373
X3.0179Y-1.8373
X3.0179Y-1.9373
X3.0179Y-2.0373
X3.0179Y-2.1373
X3.0179Y-2.2373
X3.0179Y-2.3373
X3.0179Y-2.4373
X3.0179Y-2.5373
X3.0179Y-2.6373
X3.0179Y-2.7373
X4.0179Y-1.3373
X4.0179Y-1.4373
X4.0179Y-1.5373
X4.0179Y-1.6373
X4.0179Y-1.7373
X4.0179Y-1.8373
X4.0179Y-1.9373
X4.0179Y-2.0373
X4.0179Y-2.1373
X4.0179Y-2.2373
X4.0179Y-2.3373
X4.0179Y-2.4373
X4.0179Y-2.5373
X4.0179Y-2.6373
X4.0179Y-2.7373
X5.1179Y-3.0973
X5.2163Y-3.0973
X5.6087Y-1.1455
X5.6179Y-3.0989
X5.7071Y-1.1455
X5.7163Y-3.0989
X6.0087Y-1.1455
X6.1071Y-1.1455
X7.2287Y-3.1091
X7.3271Y-3.1091
X8.5079Y-2.1136
X8.5079Y-2.212
T4
X1.421Y-1.0405
X1.421Y-3.2058
X8.5077Y-1.0405
X8.5077Y-3.2058
M30
