%TF.GenerationSoftware,KiCad,Pcbnew,7.0.10*%
%TF.CreationDate,2024-09-26T22:41:12+03:00*%
%TF.ProjectId,Ver1,56657231-2e6b-4696-9361-645f70636258,rev?*%
%TF.SameCoordinates,Original*%
%TF.FileFunction,AssemblyDrawing,Top*%
%FSLAX46Y46*%
G04 Gerber Fmt 4.6, Leading zero omitted, Abs format (unit mm)*
G04 Created by KiCad (PCBNEW 7.0.10) date 2024-09-26 22:41:12*
%MOMM*%
%LPD*%
G01*
G04 APERTURE LIST*
%ADD10C,0.150000*%
%ADD11C,0.074930*%
%ADD12C,0.080000*%
%ADD13C,0.100000*%
%ADD14C,0.149860*%
%ADD15C,0.381000*%
G04 APERTURE END LIST*
D10*
X112468495Y-48027819D02*
X112468495Y-48837342D01*
X112468495Y-48837342D02*
X112516114Y-48932580D01*
X112516114Y-48932580D02*
X112563733Y-48980200D01*
X112563733Y-48980200D02*
X112658971Y-49027819D01*
X112658971Y-49027819D02*
X112849447Y-49027819D01*
X112849447Y-49027819D02*
X112944685Y-48980200D01*
X112944685Y-48980200D02*
X112992304Y-48932580D01*
X112992304Y-48932580D02*
X113039923Y-48837342D01*
X113039923Y-48837342D02*
X113039923Y-48027819D01*
X113420876Y-48027819D02*
X114087542Y-48027819D01*
X114087542Y-48027819D02*
X113658971Y-49027819D01*
X182844495Y-47646819D02*
X182844495Y-48456342D01*
X182844495Y-48456342D02*
X182892114Y-48551580D01*
X182892114Y-48551580D02*
X182939733Y-48599200D01*
X182939733Y-48599200D02*
X183034971Y-48646819D01*
X183034971Y-48646819D02*
X183225447Y-48646819D01*
X183225447Y-48646819D02*
X183320685Y-48599200D01*
X183320685Y-48599200D02*
X183368304Y-48551580D01*
X183368304Y-48551580D02*
X183415923Y-48456342D01*
X183415923Y-48456342D02*
X183415923Y-47646819D01*
X184415923Y-48646819D02*
X183844495Y-48646819D01*
X184130209Y-48646819D02*
X184130209Y-47646819D01*
X184130209Y-47646819D02*
X184034971Y-47789676D01*
X184034971Y-47789676D02*
X183939733Y-47884914D01*
X183939733Y-47884914D02*
X183844495Y-47932533D01*
D11*
X146659479Y-41559818D02*
X146902109Y-41559818D01*
X146902109Y-41559818D02*
X146930654Y-41545545D01*
X146930654Y-41545545D02*
X146944927Y-41531273D01*
X146944927Y-41531273D02*
X146959199Y-41502728D01*
X146959199Y-41502728D02*
X146959199Y-41445639D01*
X146959199Y-41445639D02*
X146944927Y-41417094D01*
X146944927Y-41417094D02*
X146930654Y-41402821D01*
X146930654Y-41402821D02*
X146902109Y-41388549D01*
X146902109Y-41388549D02*
X146659479Y-41388549D01*
X146659479Y-41103102D02*
X146659479Y-41245826D01*
X146659479Y-41245826D02*
X146802203Y-41260098D01*
X146802203Y-41260098D02*
X146787930Y-41245826D01*
X146787930Y-41245826D02*
X146773658Y-41217281D01*
X146773658Y-41217281D02*
X146773658Y-41145919D01*
X146773658Y-41145919D02*
X146787930Y-41117374D01*
X146787930Y-41117374D02*
X146802203Y-41103102D01*
X146802203Y-41103102D02*
X146830747Y-41088829D01*
X146830747Y-41088829D02*
X146902109Y-41088829D01*
X146902109Y-41088829D02*
X146930654Y-41103102D01*
X146930654Y-41103102D02*
X146944927Y-41117374D01*
X146944927Y-41117374D02*
X146959199Y-41145919D01*
X146959199Y-41145919D02*
X146959199Y-41217281D01*
X146959199Y-41217281D02*
X146944927Y-41245826D01*
X146944927Y-41245826D02*
X146930654Y-41260098D01*
D12*
X177424971Y-60611149D02*
X177258305Y-60373054D01*
X177139257Y-60611149D02*
X177139257Y-60111149D01*
X177139257Y-60111149D02*
X177329733Y-60111149D01*
X177329733Y-60111149D02*
X177377352Y-60134959D01*
X177377352Y-60134959D02*
X177401162Y-60158768D01*
X177401162Y-60158768D02*
X177424971Y-60206387D01*
X177424971Y-60206387D02*
X177424971Y-60277816D01*
X177424971Y-60277816D02*
X177401162Y-60325435D01*
X177401162Y-60325435D02*
X177377352Y-60349244D01*
X177377352Y-60349244D02*
X177329733Y-60373054D01*
X177329733Y-60373054D02*
X177139257Y-60373054D01*
X177591638Y-60111149D02*
X177901162Y-60111149D01*
X177901162Y-60111149D02*
X177734495Y-60301625D01*
X177734495Y-60301625D02*
X177805924Y-60301625D01*
X177805924Y-60301625D02*
X177853543Y-60325435D01*
X177853543Y-60325435D02*
X177877352Y-60349244D01*
X177877352Y-60349244D02*
X177901162Y-60396863D01*
X177901162Y-60396863D02*
X177901162Y-60515911D01*
X177901162Y-60515911D02*
X177877352Y-60563530D01*
X177877352Y-60563530D02*
X177853543Y-60587340D01*
X177853543Y-60587340D02*
X177805924Y-60611149D01*
X177805924Y-60611149D02*
X177663067Y-60611149D01*
X177663067Y-60611149D02*
X177615448Y-60587340D01*
X177615448Y-60587340D02*
X177591638Y-60563530D01*
X178329733Y-60277816D02*
X178329733Y-60611149D01*
X178210685Y-60087340D02*
X178091638Y-60444482D01*
X178091638Y-60444482D02*
X178401161Y-60444482D01*
D10*
X139289305Y-51764319D02*
X139289305Y-50764319D01*
X139289305Y-50764319D02*
X139527400Y-50764319D01*
X139527400Y-50764319D02*
X139670257Y-50811938D01*
X139670257Y-50811938D02*
X139765495Y-50907176D01*
X139765495Y-50907176D02*
X139813114Y-51002414D01*
X139813114Y-51002414D02*
X139860733Y-51192890D01*
X139860733Y-51192890D02*
X139860733Y-51335747D01*
X139860733Y-51335747D02*
X139813114Y-51526223D01*
X139813114Y-51526223D02*
X139765495Y-51621461D01*
X139765495Y-51621461D02*
X139670257Y-51716700D01*
X139670257Y-51716700D02*
X139527400Y-51764319D01*
X139527400Y-51764319D02*
X139289305Y-51764319D01*
X140241686Y-50859557D02*
X140289305Y-50811938D01*
X140289305Y-50811938D02*
X140384543Y-50764319D01*
X140384543Y-50764319D02*
X140622638Y-50764319D01*
X140622638Y-50764319D02*
X140717876Y-50811938D01*
X140717876Y-50811938D02*
X140765495Y-50859557D01*
X140765495Y-50859557D02*
X140813114Y-50954795D01*
X140813114Y-50954795D02*
X140813114Y-51050033D01*
X140813114Y-51050033D02*
X140765495Y-51192890D01*
X140765495Y-51192890D02*
X140194067Y-51764319D01*
X140194067Y-51764319D02*
X140813114Y-51764319D01*
X158897219Y-59534666D02*
X158421028Y-59867999D01*
X158897219Y-60106094D02*
X157897219Y-60106094D01*
X157897219Y-60106094D02*
X157897219Y-59725142D01*
X157897219Y-59725142D02*
X157944838Y-59629904D01*
X157944838Y-59629904D02*
X157992457Y-59582285D01*
X157992457Y-59582285D02*
X158087695Y-59534666D01*
X158087695Y-59534666D02*
X158230552Y-59534666D01*
X158230552Y-59534666D02*
X158325790Y-59582285D01*
X158325790Y-59582285D02*
X158373409Y-59629904D01*
X158373409Y-59629904D02*
X158421028Y-59725142D01*
X158421028Y-59725142D02*
X158421028Y-60106094D01*
X157897219Y-59201332D02*
X157897219Y-58534666D01*
X157897219Y-58534666D02*
X158897219Y-58963237D01*
X65741245Y-59179069D02*
X65741245Y-59988592D01*
X65741245Y-59988592D02*
X65788864Y-60083830D01*
X65788864Y-60083830D02*
X65836483Y-60131450D01*
X65836483Y-60131450D02*
X65931721Y-60179069D01*
X65931721Y-60179069D02*
X66122197Y-60179069D01*
X66122197Y-60179069D02*
X66217435Y-60131450D01*
X66217435Y-60131450D02*
X66265054Y-60083830D01*
X66265054Y-60083830D02*
X66312673Y-59988592D01*
X66312673Y-59988592D02*
X66312673Y-59179069D01*
X67217435Y-59179069D02*
X67026959Y-59179069D01*
X67026959Y-59179069D02*
X66931721Y-59226688D01*
X66931721Y-59226688D02*
X66884102Y-59274307D01*
X66884102Y-59274307D02*
X66788864Y-59417164D01*
X66788864Y-59417164D02*
X66741245Y-59607640D01*
X66741245Y-59607640D02*
X66741245Y-59988592D01*
X66741245Y-59988592D02*
X66788864Y-60083830D01*
X66788864Y-60083830D02*
X66836483Y-60131450D01*
X66836483Y-60131450D02*
X66931721Y-60179069D01*
X66931721Y-60179069D02*
X67122197Y-60179069D01*
X67122197Y-60179069D02*
X67217435Y-60131450D01*
X67217435Y-60131450D02*
X67265054Y-60083830D01*
X67265054Y-60083830D02*
X67312673Y-59988592D01*
X67312673Y-59988592D02*
X67312673Y-59750497D01*
X67312673Y-59750497D02*
X67265054Y-59655259D01*
X67265054Y-59655259D02*
X67217435Y-59607640D01*
X67217435Y-59607640D02*
X67122197Y-59560021D01*
X67122197Y-59560021D02*
X66931721Y-59560021D01*
X66931721Y-59560021D02*
X66836483Y-59607640D01*
X66836483Y-59607640D02*
X66788864Y-59655259D01*
X66788864Y-59655259D02*
X66741245Y-59750497D01*
D12*
X174615066Y-72920149D02*
X174448400Y-72682054D01*
X174329352Y-72920149D02*
X174329352Y-72420149D01*
X174329352Y-72420149D02*
X174519828Y-72420149D01*
X174519828Y-72420149D02*
X174567447Y-72443959D01*
X174567447Y-72443959D02*
X174591257Y-72467768D01*
X174591257Y-72467768D02*
X174615066Y-72515387D01*
X174615066Y-72515387D02*
X174615066Y-72586816D01*
X174615066Y-72586816D02*
X174591257Y-72634435D01*
X174591257Y-72634435D02*
X174567447Y-72658244D01*
X174567447Y-72658244D02*
X174519828Y-72682054D01*
X174519828Y-72682054D02*
X174329352Y-72682054D01*
X174805543Y-72467768D02*
X174829352Y-72443959D01*
X174829352Y-72443959D02*
X174876971Y-72420149D01*
X174876971Y-72420149D02*
X174996019Y-72420149D01*
X174996019Y-72420149D02*
X175043638Y-72443959D01*
X175043638Y-72443959D02*
X175067447Y-72467768D01*
X175067447Y-72467768D02*
X175091257Y-72515387D01*
X175091257Y-72515387D02*
X175091257Y-72563006D01*
X175091257Y-72563006D02*
X175067447Y-72634435D01*
X175067447Y-72634435D02*
X174781733Y-72920149D01*
X174781733Y-72920149D02*
X175091257Y-72920149D01*
D10*
X184723542Y-37978819D02*
X184390209Y-37502628D01*
X184152114Y-37978819D02*
X184152114Y-36978819D01*
X184152114Y-36978819D02*
X184533066Y-36978819D01*
X184533066Y-36978819D02*
X184628304Y-37026438D01*
X184628304Y-37026438D02*
X184675923Y-37074057D01*
X184675923Y-37074057D02*
X184723542Y-37169295D01*
X184723542Y-37169295D02*
X184723542Y-37312152D01*
X184723542Y-37312152D02*
X184675923Y-37407390D01*
X184675923Y-37407390D02*
X184628304Y-37455009D01*
X184628304Y-37455009D02*
X184533066Y-37502628D01*
X184533066Y-37502628D02*
X184152114Y-37502628D01*
X185056876Y-36978819D02*
X185675923Y-36978819D01*
X185675923Y-36978819D02*
X185342590Y-37359771D01*
X185342590Y-37359771D02*
X185485447Y-37359771D01*
X185485447Y-37359771D02*
X185580685Y-37407390D01*
X185580685Y-37407390D02*
X185628304Y-37455009D01*
X185628304Y-37455009D02*
X185675923Y-37550247D01*
X185675923Y-37550247D02*
X185675923Y-37788342D01*
X185675923Y-37788342D02*
X185628304Y-37883580D01*
X185628304Y-37883580D02*
X185580685Y-37931200D01*
X185580685Y-37931200D02*
X185485447Y-37978819D01*
X185485447Y-37978819D02*
X185199733Y-37978819D01*
X185199733Y-37978819D02*
X185104495Y-37931200D01*
X185104495Y-37931200D02*
X185056876Y-37883580D01*
X186009257Y-36978819D02*
X186628304Y-36978819D01*
X186628304Y-36978819D02*
X186294971Y-37359771D01*
X186294971Y-37359771D02*
X186437828Y-37359771D01*
X186437828Y-37359771D02*
X186533066Y-37407390D01*
X186533066Y-37407390D02*
X186580685Y-37455009D01*
X186580685Y-37455009D02*
X186628304Y-37550247D01*
X186628304Y-37550247D02*
X186628304Y-37788342D01*
X186628304Y-37788342D02*
X186580685Y-37883580D01*
X186580685Y-37883580D02*
X186533066Y-37931200D01*
X186533066Y-37931200D02*
X186437828Y-37978819D01*
X186437828Y-37978819D02*
X186152114Y-37978819D01*
X186152114Y-37978819D02*
X186056876Y-37931200D01*
X186056876Y-37931200D02*
X186009257Y-37883580D01*
X176428876Y-30050819D02*
X176428876Y-30765104D01*
X176428876Y-30765104D02*
X176381257Y-30907961D01*
X176381257Y-30907961D02*
X176286019Y-31003200D01*
X176286019Y-31003200D02*
X176143162Y-31050819D01*
X176143162Y-31050819D02*
X176047924Y-31050819D01*
X176857448Y-30146057D02*
X176905067Y-30098438D01*
X176905067Y-30098438D02*
X177000305Y-30050819D01*
X177000305Y-30050819D02*
X177238400Y-30050819D01*
X177238400Y-30050819D02*
X177333638Y-30098438D01*
X177333638Y-30098438D02*
X177381257Y-30146057D01*
X177381257Y-30146057D02*
X177428876Y-30241295D01*
X177428876Y-30241295D02*
X177428876Y-30336533D01*
X177428876Y-30336533D02*
X177381257Y-30479390D01*
X177381257Y-30479390D02*
X176809829Y-31050819D01*
X176809829Y-31050819D02*
X177428876Y-31050819D01*
X178047924Y-30050819D02*
X178143162Y-30050819D01*
X178143162Y-30050819D02*
X178238400Y-30098438D01*
X178238400Y-30098438D02*
X178286019Y-30146057D01*
X178286019Y-30146057D02*
X178333638Y-30241295D01*
X178333638Y-30241295D02*
X178381257Y-30431771D01*
X178381257Y-30431771D02*
X178381257Y-30669866D01*
X178381257Y-30669866D02*
X178333638Y-30860342D01*
X178333638Y-30860342D02*
X178286019Y-30955580D01*
X178286019Y-30955580D02*
X178238400Y-31003200D01*
X178238400Y-31003200D02*
X178143162Y-31050819D01*
X178143162Y-31050819D02*
X178047924Y-31050819D01*
X178047924Y-31050819D02*
X177952686Y-31003200D01*
X177952686Y-31003200D02*
X177905067Y-30955580D01*
X177905067Y-30955580D02*
X177857448Y-30860342D01*
X177857448Y-30860342D02*
X177809829Y-30669866D01*
X177809829Y-30669866D02*
X177809829Y-30431771D01*
X177809829Y-30431771D02*
X177857448Y-30241295D01*
X177857448Y-30241295D02*
X177905067Y-30146057D01*
X177905067Y-30146057D02*
X177952686Y-30098438D01*
X177952686Y-30098438D02*
X178047924Y-30050819D01*
D12*
X68086721Y-44711399D02*
X67920055Y-44473304D01*
X67801007Y-44711399D02*
X67801007Y-44211399D01*
X67801007Y-44211399D02*
X67991483Y-44211399D01*
X67991483Y-44211399D02*
X68039102Y-44235209D01*
X68039102Y-44235209D02*
X68062912Y-44259018D01*
X68062912Y-44259018D02*
X68086721Y-44306637D01*
X68086721Y-44306637D02*
X68086721Y-44378066D01*
X68086721Y-44378066D02*
X68062912Y-44425685D01*
X68062912Y-44425685D02*
X68039102Y-44449494D01*
X68039102Y-44449494D02*
X67991483Y-44473304D01*
X67991483Y-44473304D02*
X67801007Y-44473304D01*
X68562912Y-44711399D02*
X68277198Y-44711399D01*
X68420055Y-44711399D02*
X68420055Y-44211399D01*
X68420055Y-44211399D02*
X68372436Y-44282828D01*
X68372436Y-44282828D02*
X68324817Y-44330447D01*
X68324817Y-44330447D02*
X68277198Y-44354256D01*
X68872435Y-44211399D02*
X68920054Y-44211399D01*
X68920054Y-44211399D02*
X68967673Y-44235209D01*
X68967673Y-44235209D02*
X68991483Y-44259018D01*
X68991483Y-44259018D02*
X69015292Y-44306637D01*
X69015292Y-44306637D02*
X69039102Y-44401875D01*
X69039102Y-44401875D02*
X69039102Y-44520923D01*
X69039102Y-44520923D02*
X69015292Y-44616161D01*
X69015292Y-44616161D02*
X68991483Y-44663780D01*
X68991483Y-44663780D02*
X68967673Y-44687590D01*
X68967673Y-44687590D02*
X68920054Y-44711399D01*
X68920054Y-44711399D02*
X68872435Y-44711399D01*
X68872435Y-44711399D02*
X68824816Y-44687590D01*
X68824816Y-44687590D02*
X68801007Y-44663780D01*
X68801007Y-44663780D02*
X68777197Y-44616161D01*
X68777197Y-44616161D02*
X68753388Y-44520923D01*
X68753388Y-44520923D02*
X68753388Y-44401875D01*
X68753388Y-44401875D02*
X68777197Y-44306637D01*
X68777197Y-44306637D02*
X68801007Y-44259018D01*
X68801007Y-44259018D02*
X68824816Y-44235209D01*
X68824816Y-44235209D02*
X68872435Y-44211399D01*
X66411066Y-32925149D02*
X66244400Y-32687054D01*
X66125352Y-32925149D02*
X66125352Y-32425149D01*
X66125352Y-32425149D02*
X66315828Y-32425149D01*
X66315828Y-32425149D02*
X66363447Y-32448959D01*
X66363447Y-32448959D02*
X66387257Y-32472768D01*
X66387257Y-32472768D02*
X66411066Y-32520387D01*
X66411066Y-32520387D02*
X66411066Y-32591816D01*
X66411066Y-32591816D02*
X66387257Y-32639435D01*
X66387257Y-32639435D02*
X66363447Y-32663244D01*
X66363447Y-32663244D02*
X66315828Y-32687054D01*
X66315828Y-32687054D02*
X66125352Y-32687054D01*
X66839638Y-32591816D02*
X66839638Y-32925149D01*
X66720590Y-32401340D02*
X66601543Y-32758482D01*
X66601543Y-32758482D02*
X66911066Y-32758482D01*
D10*
X214055219Y-55269333D02*
X214769504Y-55269333D01*
X214769504Y-55269333D02*
X214912361Y-55316952D01*
X214912361Y-55316952D02*
X215007600Y-55412190D01*
X215007600Y-55412190D02*
X215055219Y-55555047D01*
X215055219Y-55555047D02*
X215055219Y-55650285D01*
X214055219Y-54364571D02*
X214055219Y-54555047D01*
X214055219Y-54555047D02*
X214102838Y-54650285D01*
X214102838Y-54650285D02*
X214150457Y-54697904D01*
X214150457Y-54697904D02*
X214293314Y-54793142D01*
X214293314Y-54793142D02*
X214483790Y-54840761D01*
X214483790Y-54840761D02*
X214864742Y-54840761D01*
X214864742Y-54840761D02*
X214959980Y-54793142D01*
X214959980Y-54793142D02*
X215007600Y-54745523D01*
X215007600Y-54745523D02*
X215055219Y-54650285D01*
X215055219Y-54650285D02*
X215055219Y-54459809D01*
X215055219Y-54459809D02*
X215007600Y-54364571D01*
X215007600Y-54364571D02*
X214959980Y-54316952D01*
X214959980Y-54316952D02*
X214864742Y-54269333D01*
X214864742Y-54269333D02*
X214626647Y-54269333D01*
X214626647Y-54269333D02*
X214531409Y-54316952D01*
X214531409Y-54316952D02*
X214483790Y-54364571D01*
X214483790Y-54364571D02*
X214436171Y-54459809D01*
X214436171Y-54459809D02*
X214436171Y-54650285D01*
X214436171Y-54650285D02*
X214483790Y-54745523D01*
X214483790Y-54745523D02*
X214531409Y-54793142D01*
X214531409Y-54793142D02*
X214626647Y-54840761D01*
X134713219Y-34777523D02*
X135427504Y-34777523D01*
X135427504Y-34777523D02*
X135570361Y-34825142D01*
X135570361Y-34825142D02*
X135665600Y-34920380D01*
X135665600Y-34920380D02*
X135713219Y-35063237D01*
X135713219Y-35063237D02*
X135713219Y-35158475D01*
X135713219Y-33777523D02*
X135713219Y-34348951D01*
X135713219Y-34063237D02*
X134713219Y-34063237D01*
X134713219Y-34063237D02*
X134856076Y-34158475D01*
X134856076Y-34158475D02*
X134951314Y-34253713D01*
X134951314Y-34253713D02*
X134998933Y-34348951D01*
X134713219Y-32920380D02*
X134713219Y-33110856D01*
X134713219Y-33110856D02*
X134760838Y-33206094D01*
X134760838Y-33206094D02*
X134808457Y-33253713D01*
X134808457Y-33253713D02*
X134951314Y-33348951D01*
X134951314Y-33348951D02*
X135141790Y-33396570D01*
X135141790Y-33396570D02*
X135522742Y-33396570D01*
X135522742Y-33396570D02*
X135617980Y-33348951D01*
X135617980Y-33348951D02*
X135665600Y-33301332D01*
X135665600Y-33301332D02*
X135713219Y-33206094D01*
X135713219Y-33206094D02*
X135713219Y-33015618D01*
X135713219Y-33015618D02*
X135665600Y-32920380D01*
X135665600Y-32920380D02*
X135617980Y-32872761D01*
X135617980Y-32872761D02*
X135522742Y-32825142D01*
X135522742Y-32825142D02*
X135284647Y-32825142D01*
X135284647Y-32825142D02*
X135189409Y-32872761D01*
X135189409Y-32872761D02*
X135141790Y-32920380D01*
X135141790Y-32920380D02*
X135094171Y-33015618D01*
X135094171Y-33015618D02*
X135094171Y-33206094D01*
X135094171Y-33206094D02*
X135141790Y-33301332D01*
X135141790Y-33301332D02*
X135189409Y-33348951D01*
X135189409Y-33348951D02*
X135284647Y-33396570D01*
D12*
X185085549Y-67166333D02*
X184847454Y-67332999D01*
X185085549Y-67452047D02*
X184585549Y-67452047D01*
X184585549Y-67452047D02*
X184585549Y-67261571D01*
X184585549Y-67261571D02*
X184609359Y-67213952D01*
X184609359Y-67213952D02*
X184633168Y-67190142D01*
X184633168Y-67190142D02*
X184680787Y-67166333D01*
X184680787Y-67166333D02*
X184752216Y-67166333D01*
X184752216Y-67166333D02*
X184799835Y-67190142D01*
X184799835Y-67190142D02*
X184823644Y-67213952D01*
X184823644Y-67213952D02*
X184847454Y-67261571D01*
X184847454Y-67261571D02*
X184847454Y-67452047D01*
X185085549Y-66690142D02*
X185085549Y-66975856D01*
X185085549Y-66832999D02*
X184585549Y-66832999D01*
X184585549Y-66832999D02*
X184656978Y-66880618D01*
X184656978Y-66880618D02*
X184704597Y-66928237D01*
X184704597Y-66928237D02*
X184728406Y-66975856D01*
X66411066Y-38005149D02*
X66244400Y-37767054D01*
X66125352Y-38005149D02*
X66125352Y-37505149D01*
X66125352Y-37505149D02*
X66315828Y-37505149D01*
X66315828Y-37505149D02*
X66363447Y-37528959D01*
X66363447Y-37528959D02*
X66387257Y-37552768D01*
X66387257Y-37552768D02*
X66411066Y-37600387D01*
X66411066Y-37600387D02*
X66411066Y-37671816D01*
X66411066Y-37671816D02*
X66387257Y-37719435D01*
X66387257Y-37719435D02*
X66363447Y-37743244D01*
X66363447Y-37743244D02*
X66315828Y-37767054D01*
X66315828Y-37767054D02*
X66125352Y-37767054D01*
X66577733Y-37505149D02*
X66887257Y-37505149D01*
X66887257Y-37505149D02*
X66720590Y-37695625D01*
X66720590Y-37695625D02*
X66792019Y-37695625D01*
X66792019Y-37695625D02*
X66839638Y-37719435D01*
X66839638Y-37719435D02*
X66863447Y-37743244D01*
X66863447Y-37743244D02*
X66887257Y-37790863D01*
X66887257Y-37790863D02*
X66887257Y-37909911D01*
X66887257Y-37909911D02*
X66863447Y-37957530D01*
X66863447Y-37957530D02*
X66839638Y-37981340D01*
X66839638Y-37981340D02*
X66792019Y-38005149D01*
X66792019Y-38005149D02*
X66649162Y-38005149D01*
X66649162Y-38005149D02*
X66601543Y-37981340D01*
X66601543Y-37981340D02*
X66577733Y-37957530D01*
X186101549Y-56133428D02*
X185863454Y-56300094D01*
X186101549Y-56419142D02*
X185601549Y-56419142D01*
X185601549Y-56419142D02*
X185601549Y-56228666D01*
X185601549Y-56228666D02*
X185625359Y-56181047D01*
X185625359Y-56181047D02*
X185649168Y-56157237D01*
X185649168Y-56157237D02*
X185696787Y-56133428D01*
X185696787Y-56133428D02*
X185768216Y-56133428D01*
X185768216Y-56133428D02*
X185815835Y-56157237D01*
X185815835Y-56157237D02*
X185839644Y-56181047D01*
X185839644Y-56181047D02*
X185863454Y-56228666D01*
X185863454Y-56228666D02*
X185863454Y-56419142D01*
X185601549Y-55966761D02*
X185601549Y-55657237D01*
X185601549Y-55657237D02*
X185792025Y-55823904D01*
X185792025Y-55823904D02*
X185792025Y-55752475D01*
X185792025Y-55752475D02*
X185815835Y-55704856D01*
X185815835Y-55704856D02*
X185839644Y-55681047D01*
X185839644Y-55681047D02*
X185887263Y-55657237D01*
X185887263Y-55657237D02*
X186006311Y-55657237D01*
X186006311Y-55657237D02*
X186053930Y-55681047D01*
X186053930Y-55681047D02*
X186077740Y-55704856D01*
X186077740Y-55704856D02*
X186101549Y-55752475D01*
X186101549Y-55752475D02*
X186101549Y-55895332D01*
X186101549Y-55895332D02*
X186077740Y-55942951D01*
X186077740Y-55942951D02*
X186053930Y-55966761D01*
X185649168Y-55466761D02*
X185625359Y-55442952D01*
X185625359Y-55442952D02*
X185601549Y-55395333D01*
X185601549Y-55395333D02*
X185601549Y-55276285D01*
X185601549Y-55276285D02*
X185625359Y-55228666D01*
X185625359Y-55228666D02*
X185649168Y-55204857D01*
X185649168Y-55204857D02*
X185696787Y-55181047D01*
X185696787Y-55181047D02*
X185744406Y-55181047D01*
X185744406Y-55181047D02*
X185815835Y-55204857D01*
X185815835Y-55204857D02*
X186101549Y-55490571D01*
X186101549Y-55490571D02*
X186101549Y-55181047D01*
D10*
X48000114Y-34137104D02*
X48476304Y-34137104D01*
X47904876Y-34422819D02*
X48238209Y-33422819D01*
X48238209Y-33422819D02*
X48571542Y-34422819D01*
X48809638Y-33422819D02*
X49428685Y-33422819D01*
X49428685Y-33422819D02*
X49095352Y-33803771D01*
X49095352Y-33803771D02*
X49238209Y-33803771D01*
X49238209Y-33803771D02*
X49333447Y-33851390D01*
X49333447Y-33851390D02*
X49381066Y-33899009D01*
X49381066Y-33899009D02*
X49428685Y-33994247D01*
X49428685Y-33994247D02*
X49428685Y-34232342D01*
X49428685Y-34232342D02*
X49381066Y-34327580D01*
X49381066Y-34327580D02*
X49333447Y-34375200D01*
X49333447Y-34375200D02*
X49238209Y-34422819D01*
X49238209Y-34422819D02*
X48952495Y-34422819D01*
X48952495Y-34422819D02*
X48857257Y-34375200D01*
X48857257Y-34375200D02*
X48809638Y-34327580D01*
X139673305Y-51764319D02*
X139673305Y-50764319D01*
X139673305Y-50764319D02*
X139911400Y-50764319D01*
X139911400Y-50764319D02*
X140054257Y-50811938D01*
X140054257Y-50811938D02*
X140149495Y-50907176D01*
X140149495Y-50907176D02*
X140197114Y-51002414D01*
X140197114Y-51002414D02*
X140244733Y-51192890D01*
X140244733Y-51192890D02*
X140244733Y-51335747D01*
X140244733Y-51335747D02*
X140197114Y-51526223D01*
X140197114Y-51526223D02*
X140149495Y-51621461D01*
X140149495Y-51621461D02*
X140054257Y-51716700D01*
X140054257Y-51716700D02*
X139911400Y-51764319D01*
X139911400Y-51764319D02*
X139673305Y-51764319D01*
X141101876Y-50764319D02*
X140911400Y-50764319D01*
X140911400Y-50764319D02*
X140816162Y-50811938D01*
X140816162Y-50811938D02*
X140768543Y-50859557D01*
X140768543Y-50859557D02*
X140673305Y-51002414D01*
X140673305Y-51002414D02*
X140625686Y-51192890D01*
X140625686Y-51192890D02*
X140625686Y-51573842D01*
X140625686Y-51573842D02*
X140673305Y-51669080D01*
X140673305Y-51669080D02*
X140720924Y-51716700D01*
X140720924Y-51716700D02*
X140816162Y-51764319D01*
X140816162Y-51764319D02*
X141006638Y-51764319D01*
X141006638Y-51764319D02*
X141101876Y-51716700D01*
X141101876Y-51716700D02*
X141149495Y-51669080D01*
X141149495Y-51669080D02*
X141197114Y-51573842D01*
X141197114Y-51573842D02*
X141197114Y-51335747D01*
X141197114Y-51335747D02*
X141149495Y-51240509D01*
X141149495Y-51240509D02*
X141101876Y-51192890D01*
X141101876Y-51192890D02*
X141006638Y-51145271D01*
X141006638Y-51145271D02*
X140816162Y-51145271D01*
X140816162Y-51145271D02*
X140720924Y-51192890D01*
X140720924Y-51192890D02*
X140673305Y-51240509D01*
X140673305Y-51240509D02*
X140625686Y-51335747D01*
X179923305Y-70712819D02*
X179923305Y-69712819D01*
X179923305Y-69712819D02*
X180161400Y-69712819D01*
X180161400Y-69712819D02*
X180304257Y-69760438D01*
X180304257Y-69760438D02*
X180399495Y-69855676D01*
X180399495Y-69855676D02*
X180447114Y-69950914D01*
X180447114Y-69950914D02*
X180494733Y-70141390D01*
X180494733Y-70141390D02*
X180494733Y-70284247D01*
X180494733Y-70284247D02*
X180447114Y-70474723D01*
X180447114Y-70474723D02*
X180399495Y-70569961D01*
X180399495Y-70569961D02*
X180304257Y-70665200D01*
X180304257Y-70665200D02*
X180161400Y-70712819D01*
X180161400Y-70712819D02*
X179923305Y-70712819D01*
X181399495Y-69712819D02*
X180923305Y-69712819D01*
X180923305Y-69712819D02*
X180875686Y-70189009D01*
X180875686Y-70189009D02*
X180923305Y-70141390D01*
X180923305Y-70141390D02*
X181018543Y-70093771D01*
X181018543Y-70093771D02*
X181256638Y-70093771D01*
X181256638Y-70093771D02*
X181351876Y-70141390D01*
X181351876Y-70141390D02*
X181399495Y-70189009D01*
X181399495Y-70189009D02*
X181447114Y-70284247D01*
X181447114Y-70284247D02*
X181447114Y-70522342D01*
X181447114Y-70522342D02*
X181399495Y-70617580D01*
X181399495Y-70617580D02*
X181351876Y-70665200D01*
X181351876Y-70665200D02*
X181256638Y-70712819D01*
X181256638Y-70712819D02*
X181018543Y-70712819D01*
X181018543Y-70712819D02*
X180923305Y-70665200D01*
X180923305Y-70665200D02*
X180875686Y-70617580D01*
X142900876Y-30050819D02*
X142900876Y-30765104D01*
X142900876Y-30765104D02*
X142853257Y-30907961D01*
X142853257Y-30907961D02*
X142758019Y-31003200D01*
X142758019Y-31003200D02*
X142615162Y-31050819D01*
X142615162Y-31050819D02*
X142519924Y-31050819D01*
X143329448Y-30146057D02*
X143377067Y-30098438D01*
X143377067Y-30098438D02*
X143472305Y-30050819D01*
X143472305Y-30050819D02*
X143710400Y-30050819D01*
X143710400Y-30050819D02*
X143805638Y-30098438D01*
X143805638Y-30098438D02*
X143853257Y-30146057D01*
X143853257Y-30146057D02*
X143900876Y-30241295D01*
X143900876Y-30241295D02*
X143900876Y-30336533D01*
X143900876Y-30336533D02*
X143853257Y-30479390D01*
X143853257Y-30479390D02*
X143281829Y-31050819D01*
X143281829Y-31050819D02*
X143900876Y-31050819D01*
X144234210Y-30050819D02*
X144853257Y-30050819D01*
X144853257Y-30050819D02*
X144519924Y-30431771D01*
X144519924Y-30431771D02*
X144662781Y-30431771D01*
X144662781Y-30431771D02*
X144758019Y-30479390D01*
X144758019Y-30479390D02*
X144805638Y-30527009D01*
X144805638Y-30527009D02*
X144853257Y-30622247D01*
X144853257Y-30622247D02*
X144853257Y-30860342D01*
X144853257Y-30860342D02*
X144805638Y-30955580D01*
X144805638Y-30955580D02*
X144758019Y-31003200D01*
X144758019Y-31003200D02*
X144662781Y-31050819D01*
X144662781Y-31050819D02*
X144377067Y-31050819D01*
X144377067Y-31050819D02*
X144281829Y-31003200D01*
X144281829Y-31003200D02*
X144234210Y-30955580D01*
X61234219Y-34833094D02*
X60234219Y-34833094D01*
X60234219Y-34833094D02*
X60234219Y-34594999D01*
X60234219Y-34594999D02*
X60281838Y-34452142D01*
X60281838Y-34452142D02*
X60377076Y-34356904D01*
X60377076Y-34356904D02*
X60472314Y-34309285D01*
X60472314Y-34309285D02*
X60662790Y-34261666D01*
X60662790Y-34261666D02*
X60805647Y-34261666D01*
X60805647Y-34261666D02*
X60996123Y-34309285D01*
X60996123Y-34309285D02*
X61091361Y-34356904D01*
X61091361Y-34356904D02*
X61186600Y-34452142D01*
X61186600Y-34452142D02*
X61234219Y-34594999D01*
X61234219Y-34594999D02*
X61234219Y-34833094D01*
X61234219Y-33309285D02*
X61234219Y-33880713D01*
X61234219Y-33594999D02*
X60234219Y-33594999D01*
X60234219Y-33594999D02*
X60377076Y-33690237D01*
X60377076Y-33690237D02*
X60472314Y-33785475D01*
X60472314Y-33785475D02*
X60519933Y-33880713D01*
X125934875Y-75631580D02*
X125887256Y-75679200D01*
X125887256Y-75679200D02*
X125744399Y-75726819D01*
X125744399Y-75726819D02*
X125649161Y-75726819D01*
X125649161Y-75726819D02*
X125506304Y-75679200D01*
X125506304Y-75679200D02*
X125411066Y-75583961D01*
X125411066Y-75583961D02*
X125363447Y-75488723D01*
X125363447Y-75488723D02*
X125315828Y-75298247D01*
X125315828Y-75298247D02*
X125315828Y-75155390D01*
X125315828Y-75155390D02*
X125363447Y-74964914D01*
X125363447Y-74964914D02*
X125411066Y-74869676D01*
X125411066Y-74869676D02*
X125506304Y-74774438D01*
X125506304Y-74774438D02*
X125649161Y-74726819D01*
X125649161Y-74726819D02*
X125744399Y-74726819D01*
X125744399Y-74726819D02*
X125887256Y-74774438D01*
X125887256Y-74774438D02*
X125934875Y-74822057D01*
X126506304Y-75726819D02*
X126411066Y-75679200D01*
X126411066Y-75679200D02*
X126363447Y-75631580D01*
X126363447Y-75631580D02*
X126315828Y-75536342D01*
X126315828Y-75536342D02*
X126315828Y-75250628D01*
X126315828Y-75250628D02*
X126363447Y-75155390D01*
X126363447Y-75155390D02*
X126411066Y-75107771D01*
X126411066Y-75107771D02*
X126506304Y-75060152D01*
X126506304Y-75060152D02*
X126649161Y-75060152D01*
X126649161Y-75060152D02*
X126744399Y-75107771D01*
X126744399Y-75107771D02*
X126792018Y-75155390D01*
X126792018Y-75155390D02*
X126839637Y-75250628D01*
X126839637Y-75250628D02*
X126839637Y-75536342D01*
X126839637Y-75536342D02*
X126792018Y-75631580D01*
X126792018Y-75631580D02*
X126744399Y-75679200D01*
X126744399Y-75679200D02*
X126649161Y-75726819D01*
X126649161Y-75726819D02*
X126506304Y-75726819D01*
X127268209Y-75060152D02*
X127268209Y-75726819D01*
X127268209Y-75155390D02*
X127315828Y-75107771D01*
X127315828Y-75107771D02*
X127411066Y-75060152D01*
X127411066Y-75060152D02*
X127553923Y-75060152D01*
X127553923Y-75060152D02*
X127649161Y-75107771D01*
X127649161Y-75107771D02*
X127696780Y-75203009D01*
X127696780Y-75203009D02*
X127696780Y-75726819D01*
X128172971Y-75060152D02*
X128172971Y-75726819D01*
X128172971Y-75155390D02*
X128220590Y-75107771D01*
X128220590Y-75107771D02*
X128315828Y-75060152D01*
X128315828Y-75060152D02*
X128458685Y-75060152D01*
X128458685Y-75060152D02*
X128553923Y-75107771D01*
X128553923Y-75107771D02*
X128601542Y-75203009D01*
X128601542Y-75203009D02*
X128601542Y-75726819D01*
X128839638Y-75822057D02*
X129601542Y-75822057D01*
X130030114Y-74726819D02*
X130125352Y-74726819D01*
X130125352Y-74726819D02*
X130220590Y-74774438D01*
X130220590Y-74774438D02*
X130268209Y-74822057D01*
X130268209Y-74822057D02*
X130315828Y-74917295D01*
X130315828Y-74917295D02*
X130363447Y-75107771D01*
X130363447Y-75107771D02*
X130363447Y-75345866D01*
X130363447Y-75345866D02*
X130315828Y-75536342D01*
X130315828Y-75536342D02*
X130268209Y-75631580D01*
X130268209Y-75631580D02*
X130220590Y-75679200D01*
X130220590Y-75679200D02*
X130125352Y-75726819D01*
X130125352Y-75726819D02*
X130030114Y-75726819D01*
X130030114Y-75726819D02*
X129934876Y-75679200D01*
X129934876Y-75679200D02*
X129887257Y-75631580D01*
X129887257Y-75631580D02*
X129839638Y-75536342D01*
X129839638Y-75536342D02*
X129792019Y-75345866D01*
X129792019Y-75345866D02*
X129792019Y-75107771D01*
X129792019Y-75107771D02*
X129839638Y-74917295D01*
X129839638Y-74917295D02*
X129887257Y-74822057D01*
X129887257Y-74822057D02*
X129934876Y-74774438D01*
X129934876Y-74774438D02*
X130030114Y-74726819D01*
X131315828Y-75726819D02*
X130744400Y-75726819D01*
X131030114Y-75726819D02*
X131030114Y-74726819D01*
X131030114Y-74726819D02*
X130934876Y-74869676D01*
X130934876Y-74869676D02*
X130839638Y-74964914D01*
X130839638Y-74964914D02*
X130744400Y-75012533D01*
X131649162Y-75726819D02*
X132172971Y-75060152D01*
X131649162Y-75060152D02*
X132172971Y-75726819D01*
X132744400Y-74726819D02*
X132839638Y-74726819D01*
X132839638Y-74726819D02*
X132934876Y-74774438D01*
X132934876Y-74774438D02*
X132982495Y-74822057D01*
X132982495Y-74822057D02*
X133030114Y-74917295D01*
X133030114Y-74917295D02*
X133077733Y-75107771D01*
X133077733Y-75107771D02*
X133077733Y-75345866D01*
X133077733Y-75345866D02*
X133030114Y-75536342D01*
X133030114Y-75536342D02*
X132982495Y-75631580D01*
X132982495Y-75631580D02*
X132934876Y-75679200D01*
X132934876Y-75679200D02*
X132839638Y-75726819D01*
X132839638Y-75726819D02*
X132744400Y-75726819D01*
X132744400Y-75726819D02*
X132649162Y-75679200D01*
X132649162Y-75679200D02*
X132601543Y-75631580D01*
X132601543Y-75631580D02*
X132553924Y-75536342D01*
X132553924Y-75536342D02*
X132506305Y-75345866D01*
X132506305Y-75345866D02*
X132506305Y-75107771D01*
X132506305Y-75107771D02*
X132553924Y-74917295D01*
X132553924Y-74917295D02*
X132601543Y-74822057D01*
X132601543Y-74822057D02*
X132649162Y-74774438D01*
X132649162Y-74774438D02*
X132744400Y-74726819D01*
X133458686Y-74822057D02*
X133506305Y-74774438D01*
X133506305Y-74774438D02*
X133601543Y-74726819D01*
X133601543Y-74726819D02*
X133839638Y-74726819D01*
X133839638Y-74726819D02*
X133934876Y-74774438D01*
X133934876Y-74774438D02*
X133982495Y-74822057D01*
X133982495Y-74822057D02*
X134030114Y-74917295D01*
X134030114Y-74917295D02*
X134030114Y-75012533D01*
X134030114Y-75012533D02*
X133982495Y-75155390D01*
X133982495Y-75155390D02*
X133411067Y-75726819D01*
X133411067Y-75726819D02*
X134030114Y-75726819D01*
X134220591Y-75822057D02*
X134982495Y-75822057D01*
X135220591Y-75726819D02*
X135220591Y-74726819D01*
X135220591Y-74726819D02*
X135601543Y-74726819D01*
X135601543Y-74726819D02*
X135696781Y-74774438D01*
X135696781Y-74774438D02*
X135744400Y-74822057D01*
X135744400Y-74822057D02*
X135792019Y-74917295D01*
X135792019Y-74917295D02*
X135792019Y-75060152D01*
X135792019Y-75060152D02*
X135744400Y-75155390D01*
X135744400Y-75155390D02*
X135696781Y-75203009D01*
X135696781Y-75203009D02*
X135601543Y-75250628D01*
X135601543Y-75250628D02*
X135220591Y-75250628D01*
X136220591Y-75726819D02*
X136220591Y-75060152D01*
X136220591Y-74726819D02*
X136172972Y-74774438D01*
X136172972Y-74774438D02*
X136220591Y-74822057D01*
X136220591Y-74822057D02*
X136268210Y-74774438D01*
X136268210Y-74774438D02*
X136220591Y-74726819D01*
X136220591Y-74726819D02*
X136220591Y-74822057D01*
X136696781Y-75060152D02*
X136696781Y-75726819D01*
X136696781Y-75155390D02*
X136744400Y-75107771D01*
X136744400Y-75107771D02*
X136839638Y-75060152D01*
X136839638Y-75060152D02*
X136982495Y-75060152D01*
X136982495Y-75060152D02*
X137077733Y-75107771D01*
X137077733Y-75107771D02*
X137125352Y-75203009D01*
X137125352Y-75203009D02*
X137125352Y-75726819D01*
X130434876Y-76626819D02*
X130434876Y-77341104D01*
X130434876Y-77341104D02*
X130387257Y-77483961D01*
X130387257Y-77483961D02*
X130292019Y-77579200D01*
X130292019Y-77579200D02*
X130149162Y-77626819D01*
X130149162Y-77626819D02*
X130053924Y-77626819D01*
X131434876Y-77626819D02*
X130863448Y-77626819D01*
X131149162Y-77626819D02*
X131149162Y-76626819D01*
X131149162Y-76626819D02*
X131053924Y-76769676D01*
X131053924Y-76769676D02*
X130958686Y-76864914D01*
X130958686Y-76864914D02*
X130863448Y-76912533D01*
X132387257Y-77626819D02*
X131815829Y-77626819D01*
X132101543Y-77626819D02*
X132101543Y-76626819D01*
X132101543Y-76626819D02*
X132006305Y-76769676D01*
X132006305Y-76769676D02*
X131911067Y-76864914D01*
X131911067Y-76864914D02*
X131815829Y-76912533D01*
X188620876Y-27510819D02*
X188620876Y-28225104D01*
X188620876Y-28225104D02*
X188573257Y-28367961D01*
X188573257Y-28367961D02*
X188478019Y-28463200D01*
X188478019Y-28463200D02*
X188335162Y-28510819D01*
X188335162Y-28510819D02*
X188239924Y-28510819D01*
X189620876Y-28510819D02*
X189049448Y-28510819D01*
X189335162Y-28510819D02*
X189335162Y-27510819D01*
X189335162Y-27510819D02*
X189239924Y-27653676D01*
X189239924Y-27653676D02*
X189144686Y-27748914D01*
X189144686Y-27748914D02*
X189049448Y-27796533D01*
X190097067Y-28510819D02*
X190287543Y-28510819D01*
X190287543Y-28510819D02*
X190382781Y-28463200D01*
X190382781Y-28463200D02*
X190430400Y-28415580D01*
X190430400Y-28415580D02*
X190525638Y-28272723D01*
X190525638Y-28272723D02*
X190573257Y-28082247D01*
X190573257Y-28082247D02*
X190573257Y-27701295D01*
X190573257Y-27701295D02*
X190525638Y-27606057D01*
X190525638Y-27606057D02*
X190478019Y-27558438D01*
X190478019Y-27558438D02*
X190382781Y-27510819D01*
X190382781Y-27510819D02*
X190192305Y-27510819D01*
X190192305Y-27510819D02*
X190097067Y-27558438D01*
X190097067Y-27558438D02*
X190049448Y-27606057D01*
X190049448Y-27606057D02*
X190001829Y-27701295D01*
X190001829Y-27701295D02*
X190001829Y-27939390D01*
X190001829Y-27939390D02*
X190049448Y-28034628D01*
X190049448Y-28034628D02*
X190097067Y-28082247D01*
X190097067Y-28082247D02*
X190192305Y-28129866D01*
X190192305Y-28129866D02*
X190382781Y-28129866D01*
X190382781Y-28129866D02*
X190478019Y-28082247D01*
X190478019Y-28082247D02*
X190525638Y-28034628D01*
X190525638Y-28034628D02*
X190573257Y-27939390D01*
X214055219Y-43639333D02*
X214769504Y-43639333D01*
X214769504Y-43639333D02*
X214912361Y-43686952D01*
X214912361Y-43686952D02*
X215007600Y-43782190D01*
X215007600Y-43782190D02*
X215055219Y-43925047D01*
X215055219Y-43925047D02*
X215055219Y-44020285D01*
X214055219Y-43258380D02*
X214055219Y-42639333D01*
X214055219Y-42639333D02*
X214436171Y-42972666D01*
X214436171Y-42972666D02*
X214436171Y-42829809D01*
X214436171Y-42829809D02*
X214483790Y-42734571D01*
X214483790Y-42734571D02*
X214531409Y-42686952D01*
X214531409Y-42686952D02*
X214626647Y-42639333D01*
X214626647Y-42639333D02*
X214864742Y-42639333D01*
X214864742Y-42639333D02*
X214959980Y-42686952D01*
X214959980Y-42686952D02*
X215007600Y-42734571D01*
X215007600Y-42734571D02*
X215055219Y-42829809D01*
X215055219Y-42829809D02*
X215055219Y-43115523D01*
X215055219Y-43115523D02*
X215007600Y-43210761D01*
X215007600Y-43210761D02*
X214959980Y-43258380D01*
X164236876Y-30050819D02*
X164236876Y-30765104D01*
X164236876Y-30765104D02*
X164189257Y-30907961D01*
X164189257Y-30907961D02*
X164094019Y-31003200D01*
X164094019Y-31003200D02*
X163951162Y-31050819D01*
X163951162Y-31050819D02*
X163855924Y-31050819D01*
X164665448Y-30146057D02*
X164713067Y-30098438D01*
X164713067Y-30098438D02*
X164808305Y-30050819D01*
X164808305Y-30050819D02*
X165046400Y-30050819D01*
X165046400Y-30050819D02*
X165141638Y-30098438D01*
X165141638Y-30098438D02*
X165189257Y-30146057D01*
X165189257Y-30146057D02*
X165236876Y-30241295D01*
X165236876Y-30241295D02*
X165236876Y-30336533D01*
X165236876Y-30336533D02*
X165189257Y-30479390D01*
X165189257Y-30479390D02*
X164617829Y-31050819D01*
X164617829Y-31050819D02*
X165236876Y-31050819D01*
X166189257Y-31050819D02*
X165617829Y-31050819D01*
X165903543Y-31050819D02*
X165903543Y-30050819D01*
X165903543Y-30050819D02*
X165808305Y-30193676D01*
X165808305Y-30193676D02*
X165713067Y-30288914D01*
X165713067Y-30288914D02*
X165617829Y-30336533D01*
D12*
X182563549Y-56133428D02*
X182325454Y-56300094D01*
X182563549Y-56419142D02*
X182063549Y-56419142D01*
X182063549Y-56419142D02*
X182063549Y-56228666D01*
X182063549Y-56228666D02*
X182087359Y-56181047D01*
X182087359Y-56181047D02*
X182111168Y-56157237D01*
X182111168Y-56157237D02*
X182158787Y-56133428D01*
X182158787Y-56133428D02*
X182230216Y-56133428D01*
X182230216Y-56133428D02*
X182277835Y-56157237D01*
X182277835Y-56157237D02*
X182301644Y-56181047D01*
X182301644Y-56181047D02*
X182325454Y-56228666D01*
X182325454Y-56228666D02*
X182325454Y-56419142D01*
X182063549Y-55966761D02*
X182063549Y-55657237D01*
X182063549Y-55657237D02*
X182254025Y-55823904D01*
X182254025Y-55823904D02*
X182254025Y-55752475D01*
X182254025Y-55752475D02*
X182277835Y-55704856D01*
X182277835Y-55704856D02*
X182301644Y-55681047D01*
X182301644Y-55681047D02*
X182349263Y-55657237D01*
X182349263Y-55657237D02*
X182468311Y-55657237D01*
X182468311Y-55657237D02*
X182515930Y-55681047D01*
X182515930Y-55681047D02*
X182539740Y-55704856D01*
X182539740Y-55704856D02*
X182563549Y-55752475D01*
X182563549Y-55752475D02*
X182563549Y-55895332D01*
X182563549Y-55895332D02*
X182539740Y-55942951D01*
X182539740Y-55942951D02*
X182515930Y-55966761D01*
X182063549Y-55228666D02*
X182063549Y-55323904D01*
X182063549Y-55323904D02*
X182087359Y-55371523D01*
X182087359Y-55371523D02*
X182111168Y-55395333D01*
X182111168Y-55395333D02*
X182182597Y-55442952D01*
X182182597Y-55442952D02*
X182277835Y-55466761D01*
X182277835Y-55466761D02*
X182468311Y-55466761D01*
X182468311Y-55466761D02*
X182515930Y-55442952D01*
X182515930Y-55442952D02*
X182539740Y-55419142D01*
X182539740Y-55419142D02*
X182563549Y-55371523D01*
X182563549Y-55371523D02*
X182563549Y-55276285D01*
X182563549Y-55276285D02*
X182539740Y-55228666D01*
X182539740Y-55228666D02*
X182515930Y-55204857D01*
X182515930Y-55204857D02*
X182468311Y-55181047D01*
X182468311Y-55181047D02*
X182349263Y-55181047D01*
X182349263Y-55181047D02*
X182301644Y-55204857D01*
X182301644Y-55204857D02*
X182277835Y-55228666D01*
X182277835Y-55228666D02*
X182254025Y-55276285D01*
X182254025Y-55276285D02*
X182254025Y-55371523D01*
X182254025Y-55371523D02*
X182277835Y-55419142D01*
X182277835Y-55419142D02*
X182301644Y-55442952D01*
X182301644Y-55442952D02*
X182349263Y-55466761D01*
D10*
X169565219Y-60010857D02*
X169089028Y-60344190D01*
X169565219Y-60582285D02*
X168565219Y-60582285D01*
X168565219Y-60582285D02*
X168565219Y-60201333D01*
X168565219Y-60201333D02*
X168612838Y-60106095D01*
X168612838Y-60106095D02*
X168660457Y-60058476D01*
X168660457Y-60058476D02*
X168755695Y-60010857D01*
X168755695Y-60010857D02*
X168898552Y-60010857D01*
X168898552Y-60010857D02*
X168993790Y-60058476D01*
X168993790Y-60058476D02*
X169041409Y-60106095D01*
X169041409Y-60106095D02*
X169089028Y-60201333D01*
X169089028Y-60201333D02*
X169089028Y-60582285D01*
X168565219Y-59677523D02*
X168565219Y-59058476D01*
X168565219Y-59058476D02*
X168946171Y-59391809D01*
X168946171Y-59391809D02*
X168946171Y-59248952D01*
X168946171Y-59248952D02*
X168993790Y-59153714D01*
X168993790Y-59153714D02*
X169041409Y-59106095D01*
X169041409Y-59106095D02*
X169136647Y-59058476D01*
X169136647Y-59058476D02*
X169374742Y-59058476D01*
X169374742Y-59058476D02*
X169469980Y-59106095D01*
X169469980Y-59106095D02*
X169517600Y-59153714D01*
X169517600Y-59153714D02*
X169565219Y-59248952D01*
X169565219Y-59248952D02*
X169565219Y-59534666D01*
X169565219Y-59534666D02*
X169517600Y-59629904D01*
X169517600Y-59629904D02*
X169469980Y-59677523D01*
X168565219Y-58725142D02*
X168565219Y-58058476D01*
X168565219Y-58058476D02*
X169565219Y-58487047D01*
X48000114Y-58267104D02*
X48476304Y-58267104D01*
X47904876Y-58552819D02*
X48238209Y-57552819D01*
X48238209Y-57552819D02*
X48571542Y-58552819D01*
X49428685Y-58552819D02*
X48857257Y-58552819D01*
X49142971Y-58552819D02*
X49142971Y-57552819D01*
X49142971Y-57552819D02*
X49047733Y-57695676D01*
X49047733Y-57695676D02*
X48952495Y-57790914D01*
X48952495Y-57790914D02*
X48857257Y-57838533D01*
X36969219Y-67301333D02*
X37683504Y-67301333D01*
X37683504Y-67301333D02*
X37826361Y-67348952D01*
X37826361Y-67348952D02*
X37921600Y-67444190D01*
X37921600Y-67444190D02*
X37969219Y-67587047D01*
X37969219Y-67587047D02*
X37969219Y-67682285D01*
X36969219Y-66348952D02*
X36969219Y-66825142D01*
X36969219Y-66825142D02*
X37445409Y-66872761D01*
X37445409Y-66872761D02*
X37397790Y-66825142D01*
X37397790Y-66825142D02*
X37350171Y-66729904D01*
X37350171Y-66729904D02*
X37350171Y-66491809D01*
X37350171Y-66491809D02*
X37397790Y-66396571D01*
X37397790Y-66396571D02*
X37445409Y-66348952D01*
X37445409Y-66348952D02*
X37540647Y-66301333D01*
X37540647Y-66301333D02*
X37778742Y-66301333D01*
X37778742Y-66301333D02*
X37873980Y-66348952D01*
X37873980Y-66348952D02*
X37921600Y-66396571D01*
X37921600Y-66396571D02*
X37969219Y-66491809D01*
X37969219Y-66491809D02*
X37969219Y-66729904D01*
X37969219Y-66729904D02*
X37921600Y-66825142D01*
X37921600Y-66825142D02*
X37873980Y-66872761D01*
X44591066Y-27302819D02*
X44591066Y-28017104D01*
X44591066Y-28017104D02*
X44543447Y-28159961D01*
X44543447Y-28159961D02*
X44448209Y-28255200D01*
X44448209Y-28255200D02*
X44305352Y-28302819D01*
X44305352Y-28302819D02*
X44210114Y-28302819D01*
X45210114Y-27731390D02*
X45114876Y-27683771D01*
X45114876Y-27683771D02*
X45067257Y-27636152D01*
X45067257Y-27636152D02*
X45019638Y-27540914D01*
X45019638Y-27540914D02*
X45019638Y-27493295D01*
X45019638Y-27493295D02*
X45067257Y-27398057D01*
X45067257Y-27398057D02*
X45114876Y-27350438D01*
X45114876Y-27350438D02*
X45210114Y-27302819D01*
X45210114Y-27302819D02*
X45400590Y-27302819D01*
X45400590Y-27302819D02*
X45495828Y-27350438D01*
X45495828Y-27350438D02*
X45543447Y-27398057D01*
X45543447Y-27398057D02*
X45591066Y-27493295D01*
X45591066Y-27493295D02*
X45591066Y-27540914D01*
X45591066Y-27540914D02*
X45543447Y-27636152D01*
X45543447Y-27636152D02*
X45495828Y-27683771D01*
X45495828Y-27683771D02*
X45400590Y-27731390D01*
X45400590Y-27731390D02*
X45210114Y-27731390D01*
X45210114Y-27731390D02*
X45114876Y-27779009D01*
X45114876Y-27779009D02*
X45067257Y-27826628D01*
X45067257Y-27826628D02*
X45019638Y-27921866D01*
X45019638Y-27921866D02*
X45019638Y-28112342D01*
X45019638Y-28112342D02*
X45067257Y-28207580D01*
X45067257Y-28207580D02*
X45114876Y-28255200D01*
X45114876Y-28255200D02*
X45210114Y-28302819D01*
X45210114Y-28302819D02*
X45400590Y-28302819D01*
X45400590Y-28302819D02*
X45495828Y-28255200D01*
X45495828Y-28255200D02*
X45543447Y-28207580D01*
X45543447Y-28207580D02*
X45591066Y-28112342D01*
X45591066Y-28112342D02*
X45591066Y-27921866D01*
X45591066Y-27921866D02*
X45543447Y-27826628D01*
X45543447Y-27826628D02*
X45495828Y-27779009D01*
X45495828Y-27779009D02*
X45400590Y-27731390D01*
D12*
X182545549Y-61721428D02*
X182307454Y-61888094D01*
X182545549Y-62007142D02*
X182045549Y-62007142D01*
X182045549Y-62007142D02*
X182045549Y-61816666D01*
X182045549Y-61816666D02*
X182069359Y-61769047D01*
X182069359Y-61769047D02*
X182093168Y-61745237D01*
X182093168Y-61745237D02*
X182140787Y-61721428D01*
X182140787Y-61721428D02*
X182212216Y-61721428D01*
X182212216Y-61721428D02*
X182259835Y-61745237D01*
X182259835Y-61745237D02*
X182283644Y-61769047D01*
X182283644Y-61769047D02*
X182307454Y-61816666D01*
X182307454Y-61816666D02*
X182307454Y-62007142D01*
X182045549Y-61554761D02*
X182045549Y-61245237D01*
X182045549Y-61245237D02*
X182236025Y-61411904D01*
X182236025Y-61411904D02*
X182236025Y-61340475D01*
X182236025Y-61340475D02*
X182259835Y-61292856D01*
X182259835Y-61292856D02*
X182283644Y-61269047D01*
X182283644Y-61269047D02*
X182331263Y-61245237D01*
X182331263Y-61245237D02*
X182450311Y-61245237D01*
X182450311Y-61245237D02*
X182497930Y-61269047D01*
X182497930Y-61269047D02*
X182521740Y-61292856D01*
X182521740Y-61292856D02*
X182545549Y-61340475D01*
X182545549Y-61340475D02*
X182545549Y-61483332D01*
X182545549Y-61483332D02*
X182521740Y-61530951D01*
X182521740Y-61530951D02*
X182497930Y-61554761D01*
X182045549Y-60792857D02*
X182045549Y-61030952D01*
X182045549Y-61030952D02*
X182283644Y-61054761D01*
X182283644Y-61054761D02*
X182259835Y-61030952D01*
X182259835Y-61030952D02*
X182236025Y-60983333D01*
X182236025Y-60983333D02*
X182236025Y-60864285D01*
X182236025Y-60864285D02*
X182259835Y-60816666D01*
X182259835Y-60816666D02*
X182283644Y-60792857D01*
X182283644Y-60792857D02*
X182331263Y-60769047D01*
X182331263Y-60769047D02*
X182450311Y-60769047D01*
X182450311Y-60769047D02*
X182497930Y-60792857D01*
X182497930Y-60792857D02*
X182521740Y-60816666D01*
X182521740Y-60816666D02*
X182545549Y-60864285D01*
X182545549Y-60864285D02*
X182545549Y-60983333D01*
X182545549Y-60983333D02*
X182521740Y-61030952D01*
X182521740Y-61030952D02*
X182497930Y-61054761D01*
X70863221Y-50266149D02*
X70696555Y-50028054D01*
X70577507Y-50266149D02*
X70577507Y-49766149D01*
X70577507Y-49766149D02*
X70767983Y-49766149D01*
X70767983Y-49766149D02*
X70815602Y-49789959D01*
X70815602Y-49789959D02*
X70839412Y-49813768D01*
X70839412Y-49813768D02*
X70863221Y-49861387D01*
X70863221Y-49861387D02*
X70863221Y-49932816D01*
X70863221Y-49932816D02*
X70839412Y-49980435D01*
X70839412Y-49980435D02*
X70815602Y-50004244D01*
X70815602Y-50004244D02*
X70767983Y-50028054D01*
X70767983Y-50028054D02*
X70577507Y-50028054D01*
X71339412Y-50266149D02*
X71053698Y-50266149D01*
X71196555Y-50266149D02*
X71196555Y-49766149D01*
X71196555Y-49766149D02*
X71148936Y-49837578D01*
X71148936Y-49837578D02*
X71101317Y-49885197D01*
X71101317Y-49885197D02*
X71053698Y-49909006D01*
X71815602Y-50266149D02*
X71529888Y-50266149D01*
X71672745Y-50266149D02*
X71672745Y-49766149D01*
X71672745Y-49766149D02*
X71625126Y-49837578D01*
X71625126Y-49837578D02*
X71577507Y-49885197D01*
X71577507Y-49885197D02*
X71529888Y-49909006D01*
D10*
X153060876Y-30050819D02*
X153060876Y-30765104D01*
X153060876Y-30765104D02*
X153013257Y-30907961D01*
X153013257Y-30907961D02*
X152918019Y-31003200D01*
X152918019Y-31003200D02*
X152775162Y-31050819D01*
X152775162Y-31050819D02*
X152679924Y-31050819D01*
X153489448Y-30146057D02*
X153537067Y-30098438D01*
X153537067Y-30098438D02*
X153632305Y-30050819D01*
X153632305Y-30050819D02*
X153870400Y-30050819D01*
X153870400Y-30050819D02*
X153965638Y-30098438D01*
X153965638Y-30098438D02*
X154013257Y-30146057D01*
X154013257Y-30146057D02*
X154060876Y-30241295D01*
X154060876Y-30241295D02*
X154060876Y-30336533D01*
X154060876Y-30336533D02*
X154013257Y-30479390D01*
X154013257Y-30479390D02*
X153441829Y-31050819D01*
X153441829Y-31050819D02*
X154060876Y-31050819D01*
X154441829Y-30146057D02*
X154489448Y-30098438D01*
X154489448Y-30098438D02*
X154584686Y-30050819D01*
X154584686Y-30050819D02*
X154822781Y-30050819D01*
X154822781Y-30050819D02*
X154918019Y-30098438D01*
X154918019Y-30098438D02*
X154965638Y-30146057D01*
X154965638Y-30146057D02*
X155013257Y-30241295D01*
X155013257Y-30241295D02*
X155013257Y-30336533D01*
X155013257Y-30336533D02*
X154965638Y-30479390D01*
X154965638Y-30479390D02*
X154394210Y-31050819D01*
X154394210Y-31050819D02*
X155013257Y-31050819D01*
X61234219Y-39913094D02*
X60234219Y-39913094D01*
X60234219Y-39913094D02*
X60234219Y-39674999D01*
X60234219Y-39674999D02*
X60281838Y-39532142D01*
X60281838Y-39532142D02*
X60377076Y-39436904D01*
X60377076Y-39436904D02*
X60472314Y-39389285D01*
X60472314Y-39389285D02*
X60662790Y-39341666D01*
X60662790Y-39341666D02*
X60805647Y-39341666D01*
X60805647Y-39341666D02*
X60996123Y-39389285D01*
X60996123Y-39389285D02*
X61091361Y-39436904D01*
X61091361Y-39436904D02*
X61186600Y-39532142D01*
X61186600Y-39532142D02*
X61234219Y-39674999D01*
X61234219Y-39674999D02*
X61234219Y-39913094D01*
X60234219Y-39008332D02*
X60234219Y-38389285D01*
X60234219Y-38389285D02*
X60615171Y-38722618D01*
X60615171Y-38722618D02*
X60615171Y-38579761D01*
X60615171Y-38579761D02*
X60662790Y-38484523D01*
X60662790Y-38484523D02*
X60710409Y-38436904D01*
X60710409Y-38436904D02*
X60805647Y-38389285D01*
X60805647Y-38389285D02*
X61043742Y-38389285D01*
X61043742Y-38389285D02*
X61138980Y-38436904D01*
X61138980Y-38436904D02*
X61186600Y-38484523D01*
X61186600Y-38484523D02*
X61234219Y-38579761D01*
X61234219Y-38579761D02*
X61234219Y-38865475D01*
X61234219Y-38865475D02*
X61186600Y-38960713D01*
X61186600Y-38960713D02*
X61138980Y-39008332D01*
D12*
X186101549Y-61721428D02*
X185863454Y-61888094D01*
X186101549Y-62007142D02*
X185601549Y-62007142D01*
X185601549Y-62007142D02*
X185601549Y-61816666D01*
X185601549Y-61816666D02*
X185625359Y-61769047D01*
X185625359Y-61769047D02*
X185649168Y-61745237D01*
X185649168Y-61745237D02*
X185696787Y-61721428D01*
X185696787Y-61721428D02*
X185768216Y-61721428D01*
X185768216Y-61721428D02*
X185815835Y-61745237D01*
X185815835Y-61745237D02*
X185839644Y-61769047D01*
X185839644Y-61769047D02*
X185863454Y-61816666D01*
X185863454Y-61816666D02*
X185863454Y-62007142D01*
X185601549Y-61554761D02*
X185601549Y-61245237D01*
X185601549Y-61245237D02*
X185792025Y-61411904D01*
X185792025Y-61411904D02*
X185792025Y-61340475D01*
X185792025Y-61340475D02*
X185815835Y-61292856D01*
X185815835Y-61292856D02*
X185839644Y-61269047D01*
X185839644Y-61269047D02*
X185887263Y-61245237D01*
X185887263Y-61245237D02*
X186006311Y-61245237D01*
X186006311Y-61245237D02*
X186053930Y-61269047D01*
X186053930Y-61269047D02*
X186077740Y-61292856D01*
X186077740Y-61292856D02*
X186101549Y-61340475D01*
X186101549Y-61340475D02*
X186101549Y-61483332D01*
X186101549Y-61483332D02*
X186077740Y-61530951D01*
X186077740Y-61530951D02*
X186053930Y-61554761D01*
X186101549Y-60769047D02*
X186101549Y-61054761D01*
X186101549Y-60911904D02*
X185601549Y-60911904D01*
X185601549Y-60911904D02*
X185672978Y-60959523D01*
X185672978Y-60959523D02*
X185720597Y-61007142D01*
X185720597Y-61007142D02*
X185744406Y-61054761D01*
D10*
X200812876Y-27510819D02*
X200812876Y-28225104D01*
X200812876Y-28225104D02*
X200765257Y-28367961D01*
X200765257Y-28367961D02*
X200670019Y-28463200D01*
X200670019Y-28463200D02*
X200527162Y-28510819D01*
X200527162Y-28510819D02*
X200431924Y-28510819D01*
X201812876Y-28510819D02*
X201241448Y-28510819D01*
X201527162Y-28510819D02*
X201527162Y-27510819D01*
X201527162Y-27510819D02*
X201431924Y-27653676D01*
X201431924Y-27653676D02*
X201336686Y-27748914D01*
X201336686Y-27748914D02*
X201241448Y-27796533D01*
X202384305Y-27939390D02*
X202289067Y-27891771D01*
X202289067Y-27891771D02*
X202241448Y-27844152D01*
X202241448Y-27844152D02*
X202193829Y-27748914D01*
X202193829Y-27748914D02*
X202193829Y-27701295D01*
X202193829Y-27701295D02*
X202241448Y-27606057D01*
X202241448Y-27606057D02*
X202289067Y-27558438D01*
X202289067Y-27558438D02*
X202384305Y-27510819D01*
X202384305Y-27510819D02*
X202574781Y-27510819D01*
X202574781Y-27510819D02*
X202670019Y-27558438D01*
X202670019Y-27558438D02*
X202717638Y-27606057D01*
X202717638Y-27606057D02*
X202765257Y-27701295D01*
X202765257Y-27701295D02*
X202765257Y-27748914D01*
X202765257Y-27748914D02*
X202717638Y-27844152D01*
X202717638Y-27844152D02*
X202670019Y-27891771D01*
X202670019Y-27891771D02*
X202574781Y-27939390D01*
X202574781Y-27939390D02*
X202384305Y-27939390D01*
X202384305Y-27939390D02*
X202289067Y-27987009D01*
X202289067Y-27987009D02*
X202241448Y-28034628D01*
X202241448Y-28034628D02*
X202193829Y-28129866D01*
X202193829Y-28129866D02*
X202193829Y-28320342D01*
X202193829Y-28320342D02*
X202241448Y-28415580D01*
X202241448Y-28415580D02*
X202289067Y-28463200D01*
X202289067Y-28463200D02*
X202384305Y-28510819D01*
X202384305Y-28510819D02*
X202574781Y-28510819D01*
X202574781Y-28510819D02*
X202670019Y-28463200D01*
X202670019Y-28463200D02*
X202717638Y-28415580D01*
X202717638Y-28415580D02*
X202765257Y-28320342D01*
X202765257Y-28320342D02*
X202765257Y-28129866D01*
X202765257Y-28129866D02*
X202717638Y-28034628D01*
X202717638Y-28034628D02*
X202670019Y-27987009D01*
X202670019Y-27987009D02*
X202574781Y-27939390D01*
X124599219Y-34991523D02*
X125313504Y-34991523D01*
X125313504Y-34991523D02*
X125456361Y-35039142D01*
X125456361Y-35039142D02*
X125551600Y-35134380D01*
X125551600Y-35134380D02*
X125599219Y-35277237D01*
X125599219Y-35277237D02*
X125599219Y-35372475D01*
X125599219Y-33991523D02*
X125599219Y-34562951D01*
X125599219Y-34277237D02*
X124599219Y-34277237D01*
X124599219Y-34277237D02*
X124742076Y-34372475D01*
X124742076Y-34372475D02*
X124837314Y-34467713D01*
X124837314Y-34467713D02*
X124884933Y-34562951D01*
X124599219Y-33658189D02*
X124599219Y-32991523D01*
X124599219Y-32991523D02*
X125599219Y-33420094D01*
X54751066Y-27302819D02*
X54751066Y-28017104D01*
X54751066Y-28017104D02*
X54703447Y-28159961D01*
X54703447Y-28159961D02*
X54608209Y-28255200D01*
X54608209Y-28255200D02*
X54465352Y-28302819D01*
X54465352Y-28302819D02*
X54370114Y-28302819D01*
X55274876Y-28302819D02*
X55465352Y-28302819D01*
X55465352Y-28302819D02*
X55560590Y-28255200D01*
X55560590Y-28255200D02*
X55608209Y-28207580D01*
X55608209Y-28207580D02*
X55703447Y-28064723D01*
X55703447Y-28064723D02*
X55751066Y-27874247D01*
X55751066Y-27874247D02*
X55751066Y-27493295D01*
X55751066Y-27493295D02*
X55703447Y-27398057D01*
X55703447Y-27398057D02*
X55655828Y-27350438D01*
X55655828Y-27350438D02*
X55560590Y-27302819D01*
X55560590Y-27302819D02*
X55370114Y-27302819D01*
X55370114Y-27302819D02*
X55274876Y-27350438D01*
X55274876Y-27350438D02*
X55227257Y-27398057D01*
X55227257Y-27398057D02*
X55179638Y-27493295D01*
X55179638Y-27493295D02*
X55179638Y-27731390D01*
X55179638Y-27731390D02*
X55227257Y-27826628D01*
X55227257Y-27826628D02*
X55274876Y-27874247D01*
X55274876Y-27874247D02*
X55370114Y-27921866D01*
X55370114Y-27921866D02*
X55560590Y-27921866D01*
X55560590Y-27921866D02*
X55655828Y-27874247D01*
X55655828Y-27874247D02*
X55703447Y-27826628D01*
X55703447Y-27826628D02*
X55751066Y-27731390D01*
D12*
X190124971Y-60611149D02*
X189958305Y-60373054D01*
X189839257Y-60611149D02*
X189839257Y-60111149D01*
X189839257Y-60111149D02*
X190029733Y-60111149D01*
X190029733Y-60111149D02*
X190077352Y-60134959D01*
X190077352Y-60134959D02*
X190101162Y-60158768D01*
X190101162Y-60158768D02*
X190124971Y-60206387D01*
X190124971Y-60206387D02*
X190124971Y-60277816D01*
X190124971Y-60277816D02*
X190101162Y-60325435D01*
X190101162Y-60325435D02*
X190077352Y-60349244D01*
X190077352Y-60349244D02*
X190029733Y-60373054D01*
X190029733Y-60373054D02*
X189839257Y-60373054D01*
X190291638Y-60111149D02*
X190601162Y-60111149D01*
X190601162Y-60111149D02*
X190434495Y-60301625D01*
X190434495Y-60301625D02*
X190505924Y-60301625D01*
X190505924Y-60301625D02*
X190553543Y-60325435D01*
X190553543Y-60325435D02*
X190577352Y-60349244D01*
X190577352Y-60349244D02*
X190601162Y-60396863D01*
X190601162Y-60396863D02*
X190601162Y-60515911D01*
X190601162Y-60515911D02*
X190577352Y-60563530D01*
X190577352Y-60563530D02*
X190553543Y-60587340D01*
X190553543Y-60587340D02*
X190505924Y-60611149D01*
X190505924Y-60611149D02*
X190363067Y-60611149D01*
X190363067Y-60611149D02*
X190315448Y-60587340D01*
X190315448Y-60587340D02*
X190291638Y-60563530D01*
X190910685Y-60111149D02*
X190958304Y-60111149D01*
X190958304Y-60111149D02*
X191005923Y-60134959D01*
X191005923Y-60134959D02*
X191029733Y-60158768D01*
X191029733Y-60158768D02*
X191053542Y-60206387D01*
X191053542Y-60206387D02*
X191077352Y-60301625D01*
X191077352Y-60301625D02*
X191077352Y-60420673D01*
X191077352Y-60420673D02*
X191053542Y-60515911D01*
X191053542Y-60515911D02*
X191029733Y-60563530D01*
X191029733Y-60563530D02*
X191005923Y-60587340D01*
X191005923Y-60587340D02*
X190958304Y-60611149D01*
X190958304Y-60611149D02*
X190910685Y-60611149D01*
X190910685Y-60611149D02*
X190863066Y-60587340D01*
X190863066Y-60587340D02*
X190839257Y-60563530D01*
X190839257Y-60563530D02*
X190815447Y-60515911D01*
X190815447Y-60515911D02*
X190791638Y-60420673D01*
X190791638Y-60420673D02*
X190791638Y-60301625D01*
X190791638Y-60301625D02*
X190815447Y-60206387D01*
X190815447Y-60206387D02*
X190839257Y-60158768D01*
X190839257Y-60158768D02*
X190863066Y-60134959D01*
X190863066Y-60134959D02*
X190910685Y-60111149D01*
X166797549Y-38845428D02*
X166559454Y-39012094D01*
X166797549Y-39131142D02*
X166297549Y-39131142D01*
X166297549Y-39131142D02*
X166297549Y-38940666D01*
X166297549Y-38940666D02*
X166321359Y-38893047D01*
X166321359Y-38893047D02*
X166345168Y-38869237D01*
X166345168Y-38869237D02*
X166392787Y-38845428D01*
X166392787Y-38845428D02*
X166464216Y-38845428D01*
X166464216Y-38845428D02*
X166511835Y-38869237D01*
X166511835Y-38869237D02*
X166535644Y-38893047D01*
X166535644Y-38893047D02*
X166559454Y-38940666D01*
X166559454Y-38940666D02*
X166559454Y-39131142D01*
X166297549Y-38678761D02*
X166297549Y-38369237D01*
X166297549Y-38369237D02*
X166488025Y-38535904D01*
X166488025Y-38535904D02*
X166488025Y-38464475D01*
X166488025Y-38464475D02*
X166511835Y-38416856D01*
X166511835Y-38416856D02*
X166535644Y-38393047D01*
X166535644Y-38393047D02*
X166583263Y-38369237D01*
X166583263Y-38369237D02*
X166702311Y-38369237D01*
X166702311Y-38369237D02*
X166749930Y-38393047D01*
X166749930Y-38393047D02*
X166773740Y-38416856D01*
X166773740Y-38416856D02*
X166797549Y-38464475D01*
X166797549Y-38464475D02*
X166797549Y-38607332D01*
X166797549Y-38607332D02*
X166773740Y-38654951D01*
X166773740Y-38654951D02*
X166749930Y-38678761D01*
X166511835Y-38083523D02*
X166488025Y-38131142D01*
X166488025Y-38131142D02*
X166464216Y-38154952D01*
X166464216Y-38154952D02*
X166416597Y-38178761D01*
X166416597Y-38178761D02*
X166392787Y-38178761D01*
X166392787Y-38178761D02*
X166345168Y-38154952D01*
X166345168Y-38154952D02*
X166321359Y-38131142D01*
X166321359Y-38131142D02*
X166297549Y-38083523D01*
X166297549Y-38083523D02*
X166297549Y-37988285D01*
X166297549Y-37988285D02*
X166321359Y-37940666D01*
X166321359Y-37940666D02*
X166345168Y-37916857D01*
X166345168Y-37916857D02*
X166392787Y-37893047D01*
X166392787Y-37893047D02*
X166416597Y-37893047D01*
X166416597Y-37893047D02*
X166464216Y-37916857D01*
X166464216Y-37916857D02*
X166488025Y-37940666D01*
X166488025Y-37940666D02*
X166511835Y-37988285D01*
X166511835Y-37988285D02*
X166511835Y-38083523D01*
X166511835Y-38083523D02*
X166535644Y-38131142D01*
X166535644Y-38131142D02*
X166559454Y-38154952D01*
X166559454Y-38154952D02*
X166607073Y-38178761D01*
X166607073Y-38178761D02*
X166702311Y-38178761D01*
X166702311Y-38178761D02*
X166749930Y-38154952D01*
X166749930Y-38154952D02*
X166773740Y-38131142D01*
X166773740Y-38131142D02*
X166797549Y-38083523D01*
X166797549Y-38083523D02*
X166797549Y-37988285D01*
X166797549Y-37988285D02*
X166773740Y-37940666D01*
X166773740Y-37940666D02*
X166749930Y-37916857D01*
X166749930Y-37916857D02*
X166702311Y-37893047D01*
X166702311Y-37893047D02*
X166607073Y-37893047D01*
X166607073Y-37893047D02*
X166559454Y-37916857D01*
X166559454Y-37916857D02*
X166535644Y-37940666D01*
X166535644Y-37940666D02*
X166511835Y-37988285D01*
D10*
X36969219Y-43171333D02*
X37683504Y-43171333D01*
X37683504Y-43171333D02*
X37826361Y-43218952D01*
X37826361Y-43218952D02*
X37921600Y-43314190D01*
X37921600Y-43314190D02*
X37969219Y-43457047D01*
X37969219Y-43457047D02*
X37969219Y-43552285D01*
X36969219Y-42790380D02*
X36969219Y-42123714D01*
X36969219Y-42123714D02*
X37969219Y-42552285D01*
X161688495Y-45487819D02*
X161688495Y-46297342D01*
X161688495Y-46297342D02*
X161736114Y-46392580D01*
X161736114Y-46392580D02*
X161783733Y-46440200D01*
X161783733Y-46440200D02*
X161878971Y-46487819D01*
X161878971Y-46487819D02*
X162069447Y-46487819D01*
X162069447Y-46487819D02*
X162164685Y-46440200D01*
X162164685Y-46440200D02*
X162212304Y-46392580D01*
X162212304Y-46392580D02*
X162259923Y-46297342D01*
X162259923Y-46297342D02*
X162259923Y-45487819D01*
X162640876Y-45487819D02*
X163259923Y-45487819D01*
X163259923Y-45487819D02*
X162926590Y-45868771D01*
X162926590Y-45868771D02*
X163069447Y-45868771D01*
X163069447Y-45868771D02*
X163164685Y-45916390D01*
X163164685Y-45916390D02*
X163212304Y-45964009D01*
X163212304Y-45964009D02*
X163259923Y-46059247D01*
X163259923Y-46059247D02*
X163259923Y-46297342D01*
X163259923Y-46297342D02*
X163212304Y-46392580D01*
X163212304Y-46392580D02*
X163164685Y-46440200D01*
X163164685Y-46440200D02*
X163069447Y-46487819D01*
X163069447Y-46487819D02*
X162783733Y-46487819D01*
X162783733Y-46487819D02*
X162688495Y-46440200D01*
X162688495Y-46440200D02*
X162640876Y-46392580D01*
X80187733Y-66919009D02*
X80521066Y-66919009D01*
X80663923Y-67442819D02*
X80187733Y-67442819D01*
X80187733Y-67442819D02*
X80187733Y-66442819D01*
X80187733Y-66442819D02*
X80663923Y-66442819D01*
X81044876Y-67395200D02*
X81187733Y-67442819D01*
X81187733Y-67442819D02*
X81425828Y-67442819D01*
X81425828Y-67442819D02*
X81521066Y-67395200D01*
X81521066Y-67395200D02*
X81568685Y-67347580D01*
X81568685Y-67347580D02*
X81616304Y-67252342D01*
X81616304Y-67252342D02*
X81616304Y-67157104D01*
X81616304Y-67157104D02*
X81568685Y-67061866D01*
X81568685Y-67061866D02*
X81521066Y-67014247D01*
X81521066Y-67014247D02*
X81425828Y-66966628D01*
X81425828Y-66966628D02*
X81235352Y-66919009D01*
X81235352Y-66919009D02*
X81140114Y-66871390D01*
X81140114Y-66871390D02*
X81092495Y-66823771D01*
X81092495Y-66823771D02*
X81044876Y-66728533D01*
X81044876Y-66728533D02*
X81044876Y-66633295D01*
X81044876Y-66633295D02*
X81092495Y-66538057D01*
X81092495Y-66538057D02*
X81140114Y-66490438D01*
X81140114Y-66490438D02*
X81235352Y-66442819D01*
X81235352Y-66442819D02*
X81473447Y-66442819D01*
X81473447Y-66442819D02*
X81616304Y-66490438D01*
X82044876Y-67442819D02*
X82044876Y-66442819D01*
X82044876Y-66442819D02*
X82425828Y-66442819D01*
X82425828Y-66442819D02*
X82521066Y-66490438D01*
X82521066Y-66490438D02*
X82568685Y-66538057D01*
X82568685Y-66538057D02*
X82616304Y-66633295D01*
X82616304Y-66633295D02*
X82616304Y-66776152D01*
X82616304Y-66776152D02*
X82568685Y-66871390D01*
X82568685Y-66871390D02*
X82521066Y-66919009D01*
X82521066Y-66919009D02*
X82425828Y-66966628D01*
X82425828Y-66966628D02*
X82044876Y-66966628D01*
X82949638Y-66442819D02*
X83568685Y-66442819D01*
X83568685Y-66442819D02*
X83235352Y-66823771D01*
X83235352Y-66823771D02*
X83378209Y-66823771D01*
X83378209Y-66823771D02*
X83473447Y-66871390D01*
X83473447Y-66871390D02*
X83521066Y-66919009D01*
X83521066Y-66919009D02*
X83568685Y-67014247D01*
X83568685Y-67014247D02*
X83568685Y-67252342D01*
X83568685Y-67252342D02*
X83521066Y-67347580D01*
X83521066Y-67347580D02*
X83473447Y-67395200D01*
X83473447Y-67395200D02*
X83378209Y-67442819D01*
X83378209Y-67442819D02*
X83092495Y-67442819D01*
X83092495Y-67442819D02*
X82997257Y-67395200D01*
X82997257Y-67395200D02*
X82949638Y-67347580D01*
X83949638Y-66538057D02*
X83997257Y-66490438D01*
X83997257Y-66490438D02*
X84092495Y-66442819D01*
X84092495Y-66442819D02*
X84330590Y-66442819D01*
X84330590Y-66442819D02*
X84425828Y-66490438D01*
X84425828Y-66490438D02*
X84473447Y-66538057D01*
X84473447Y-66538057D02*
X84521066Y-66633295D01*
X84521066Y-66633295D02*
X84521066Y-66728533D01*
X84521066Y-66728533D02*
X84473447Y-66871390D01*
X84473447Y-66871390D02*
X83902019Y-67442819D01*
X83902019Y-67442819D02*
X84521066Y-67442819D01*
X85616305Y-66442819D02*
X85854400Y-67442819D01*
X85854400Y-67442819D02*
X86044876Y-66728533D01*
X86044876Y-66728533D02*
X86235352Y-67442819D01*
X86235352Y-67442819D02*
X86473448Y-66442819D01*
X87425828Y-67442819D02*
X87092495Y-66966628D01*
X86854400Y-67442819D02*
X86854400Y-66442819D01*
X86854400Y-66442819D02*
X87235352Y-66442819D01*
X87235352Y-66442819D02*
X87330590Y-66490438D01*
X87330590Y-66490438D02*
X87378209Y-66538057D01*
X87378209Y-66538057D02*
X87425828Y-66633295D01*
X87425828Y-66633295D02*
X87425828Y-66776152D01*
X87425828Y-66776152D02*
X87378209Y-66871390D01*
X87378209Y-66871390D02*
X87330590Y-66919009D01*
X87330590Y-66919009D02*
X87235352Y-66966628D01*
X87235352Y-66966628D02*
X86854400Y-66966628D01*
X88044876Y-66442819D02*
X88235352Y-66442819D01*
X88235352Y-66442819D02*
X88330590Y-66490438D01*
X88330590Y-66490438D02*
X88425828Y-66585676D01*
X88425828Y-66585676D02*
X88473447Y-66776152D01*
X88473447Y-66776152D02*
X88473447Y-67109485D01*
X88473447Y-67109485D02*
X88425828Y-67299961D01*
X88425828Y-67299961D02*
X88330590Y-67395200D01*
X88330590Y-67395200D02*
X88235352Y-67442819D01*
X88235352Y-67442819D02*
X88044876Y-67442819D01*
X88044876Y-67442819D02*
X87949638Y-67395200D01*
X87949638Y-67395200D02*
X87854400Y-67299961D01*
X87854400Y-67299961D02*
X87806781Y-67109485D01*
X87806781Y-67109485D02*
X87806781Y-66776152D01*
X87806781Y-66776152D02*
X87854400Y-66585676D01*
X87854400Y-66585676D02*
X87949638Y-66490438D01*
X87949638Y-66490438D02*
X88044876Y-66442819D01*
X89092495Y-66442819D02*
X89282971Y-66442819D01*
X89282971Y-66442819D02*
X89378209Y-66490438D01*
X89378209Y-66490438D02*
X89473447Y-66585676D01*
X89473447Y-66585676D02*
X89521066Y-66776152D01*
X89521066Y-66776152D02*
X89521066Y-67109485D01*
X89521066Y-67109485D02*
X89473447Y-67299961D01*
X89473447Y-67299961D02*
X89378209Y-67395200D01*
X89378209Y-67395200D02*
X89282971Y-67442819D01*
X89282971Y-67442819D02*
X89092495Y-67442819D01*
X89092495Y-67442819D02*
X88997257Y-67395200D01*
X88997257Y-67395200D02*
X88902019Y-67299961D01*
X88902019Y-67299961D02*
X88854400Y-67109485D01*
X88854400Y-67109485D02*
X88854400Y-66776152D01*
X88854400Y-66776152D02*
X88902019Y-66585676D01*
X88902019Y-66585676D02*
X88997257Y-66490438D01*
X88997257Y-66490438D02*
X89092495Y-66442819D01*
X89949638Y-67442819D02*
X89949638Y-66442819D01*
X89949638Y-66442819D02*
X90282971Y-67157104D01*
X90282971Y-67157104D02*
X90616304Y-66442819D01*
X90616304Y-66442819D02*
X90616304Y-67442819D01*
X91854400Y-67442819D02*
X91854400Y-66442819D01*
X91854400Y-66442819D02*
X92092495Y-66442819D01*
X92092495Y-66442819D02*
X92235352Y-66490438D01*
X92235352Y-66490438D02*
X92330590Y-66585676D01*
X92330590Y-66585676D02*
X92378209Y-66680914D01*
X92378209Y-66680914D02*
X92425828Y-66871390D01*
X92425828Y-66871390D02*
X92425828Y-67014247D01*
X92425828Y-67014247D02*
X92378209Y-67204723D01*
X92378209Y-67204723D02*
X92330590Y-67299961D01*
X92330590Y-67299961D02*
X92235352Y-67395200D01*
X92235352Y-67395200D02*
X92092495Y-67442819D01*
X92092495Y-67442819D02*
X91854400Y-67442819D01*
X93235352Y-67395200D02*
X93140114Y-67442819D01*
X93140114Y-67442819D02*
X92949638Y-67442819D01*
X92949638Y-67442819D02*
X92854400Y-67395200D01*
X92854400Y-67395200D02*
X92806781Y-67299961D01*
X92806781Y-67299961D02*
X92806781Y-66919009D01*
X92806781Y-66919009D02*
X92854400Y-66823771D01*
X92854400Y-66823771D02*
X92949638Y-66776152D01*
X92949638Y-66776152D02*
X93140114Y-66776152D01*
X93140114Y-66776152D02*
X93235352Y-66823771D01*
X93235352Y-66823771D02*
X93282971Y-66919009D01*
X93282971Y-66919009D02*
X93282971Y-67014247D01*
X93282971Y-67014247D02*
X92806781Y-67109485D01*
X93616305Y-66776152D02*
X93854400Y-67442819D01*
X93854400Y-67442819D02*
X94092495Y-66776152D01*
X94473448Y-67442819D02*
X94473448Y-66442819D01*
X95044876Y-67442819D02*
X94616305Y-66871390D01*
X95044876Y-66442819D02*
X94473448Y-67014247D01*
X95473448Y-67442819D02*
X95473448Y-66776152D01*
X95473448Y-66442819D02*
X95425829Y-66490438D01*
X95425829Y-66490438D02*
X95473448Y-66538057D01*
X95473448Y-66538057D02*
X95521067Y-66490438D01*
X95521067Y-66490438D02*
X95473448Y-66442819D01*
X95473448Y-66442819D02*
X95473448Y-66538057D01*
X95806781Y-66776152D02*
X96187733Y-66776152D01*
X95949638Y-66442819D02*
X95949638Y-67299961D01*
X95949638Y-67299961D02*
X95997257Y-67395200D01*
X95997257Y-67395200D02*
X96092495Y-67442819D01*
X96092495Y-67442819D02*
X96187733Y-67442819D01*
X97187734Y-66776152D02*
X97425829Y-67442819D01*
X97425829Y-67442819D02*
X97663924Y-66776152D01*
X98568686Y-67442819D02*
X97997258Y-67442819D01*
X98282972Y-67442819D02*
X98282972Y-66442819D01*
X98282972Y-66442819D02*
X98187734Y-66585676D01*
X98187734Y-66585676D02*
X98092496Y-66680914D01*
X98092496Y-66680914D02*
X97997258Y-66728533D01*
X89021066Y-63902819D02*
X89021066Y-64617104D01*
X89021066Y-64617104D02*
X88973447Y-64759961D01*
X88973447Y-64759961D02*
X88878209Y-64855200D01*
X88878209Y-64855200D02*
X88735352Y-64902819D01*
X88735352Y-64902819D02*
X88640114Y-64902819D01*
X90021066Y-64902819D02*
X89449638Y-64902819D01*
X89735352Y-64902819D02*
X89735352Y-63902819D01*
X89735352Y-63902819D02*
X89640114Y-64045676D01*
X89640114Y-64045676D02*
X89544876Y-64140914D01*
X89544876Y-64140914D02*
X89449638Y-64188533D01*
D12*
X136276971Y-60103149D02*
X136110305Y-59865054D01*
X135991257Y-60103149D02*
X135991257Y-59603149D01*
X135991257Y-59603149D02*
X136181733Y-59603149D01*
X136181733Y-59603149D02*
X136229352Y-59626959D01*
X136229352Y-59626959D02*
X136253162Y-59650768D01*
X136253162Y-59650768D02*
X136276971Y-59698387D01*
X136276971Y-59698387D02*
X136276971Y-59769816D01*
X136276971Y-59769816D02*
X136253162Y-59817435D01*
X136253162Y-59817435D02*
X136229352Y-59841244D01*
X136229352Y-59841244D02*
X136181733Y-59865054D01*
X136181733Y-59865054D02*
X135991257Y-59865054D01*
X136705543Y-59769816D02*
X136705543Y-60103149D01*
X136586495Y-59579340D02*
X136467448Y-59936482D01*
X136467448Y-59936482D02*
X136776971Y-59936482D01*
X136943638Y-59650768D02*
X136967447Y-59626959D01*
X136967447Y-59626959D02*
X137015066Y-59603149D01*
X137015066Y-59603149D02*
X137134114Y-59603149D01*
X137134114Y-59603149D02*
X137181733Y-59626959D01*
X137181733Y-59626959D02*
X137205542Y-59650768D01*
X137205542Y-59650768D02*
X137229352Y-59698387D01*
X137229352Y-59698387D02*
X137229352Y-59746006D01*
X137229352Y-59746006D02*
X137205542Y-59817435D01*
X137205542Y-59817435D02*
X136919828Y-60103149D01*
X136919828Y-60103149D02*
X137229352Y-60103149D01*
X68712971Y-47911149D02*
X68546305Y-47673054D01*
X68427257Y-47911149D02*
X68427257Y-47411149D01*
X68427257Y-47411149D02*
X68617733Y-47411149D01*
X68617733Y-47411149D02*
X68665352Y-47434959D01*
X68665352Y-47434959D02*
X68689162Y-47458768D01*
X68689162Y-47458768D02*
X68712971Y-47506387D01*
X68712971Y-47506387D02*
X68712971Y-47577816D01*
X68712971Y-47577816D02*
X68689162Y-47625435D01*
X68689162Y-47625435D02*
X68665352Y-47649244D01*
X68665352Y-47649244D02*
X68617733Y-47673054D01*
X68617733Y-47673054D02*
X68427257Y-47673054D01*
X69189162Y-47911149D02*
X68903448Y-47911149D01*
X69046305Y-47911149D02*
X69046305Y-47411149D01*
X69046305Y-47411149D02*
X68998686Y-47482578D01*
X68998686Y-47482578D02*
X68951067Y-47530197D01*
X68951067Y-47530197D02*
X68903448Y-47554006D01*
X69379638Y-47458768D02*
X69403447Y-47434959D01*
X69403447Y-47434959D02*
X69451066Y-47411149D01*
X69451066Y-47411149D02*
X69570114Y-47411149D01*
X69570114Y-47411149D02*
X69617733Y-47434959D01*
X69617733Y-47434959D02*
X69641542Y-47458768D01*
X69641542Y-47458768D02*
X69665352Y-47506387D01*
X69665352Y-47506387D02*
X69665352Y-47554006D01*
X69665352Y-47554006D02*
X69641542Y-47625435D01*
X69641542Y-47625435D02*
X69355828Y-47911149D01*
X69355828Y-47911149D02*
X69665352Y-47911149D01*
D10*
X214055219Y-67769333D02*
X214769504Y-67769333D01*
X214769504Y-67769333D02*
X214912361Y-67816952D01*
X214912361Y-67816952D02*
X215007600Y-67912190D01*
X215007600Y-67912190D02*
X215055219Y-68055047D01*
X215055219Y-68055047D02*
X215055219Y-68150285D01*
X214150457Y-67340761D02*
X214102838Y-67293142D01*
X214102838Y-67293142D02*
X214055219Y-67197904D01*
X214055219Y-67197904D02*
X214055219Y-66959809D01*
X214055219Y-66959809D02*
X214102838Y-66864571D01*
X214102838Y-66864571D02*
X214150457Y-66816952D01*
X214150457Y-66816952D02*
X214245695Y-66769333D01*
X214245695Y-66769333D02*
X214340933Y-66769333D01*
X214340933Y-66769333D02*
X214483790Y-66816952D01*
X214483790Y-66816952D02*
X215055219Y-67388380D01*
X215055219Y-67388380D02*
X215055219Y-66769333D01*
X151277219Y-58994857D02*
X150801028Y-59328190D01*
X151277219Y-59566285D02*
X150277219Y-59566285D01*
X150277219Y-59566285D02*
X150277219Y-59185333D01*
X150277219Y-59185333D02*
X150324838Y-59090095D01*
X150324838Y-59090095D02*
X150372457Y-59042476D01*
X150372457Y-59042476D02*
X150467695Y-58994857D01*
X150467695Y-58994857D02*
X150610552Y-58994857D01*
X150610552Y-58994857D02*
X150705790Y-59042476D01*
X150705790Y-59042476D02*
X150753409Y-59090095D01*
X150753409Y-59090095D02*
X150801028Y-59185333D01*
X150801028Y-59185333D02*
X150801028Y-59566285D01*
X150610552Y-58137714D02*
X151277219Y-58137714D01*
X150229600Y-58375809D02*
X150943885Y-58613904D01*
X150943885Y-58613904D02*
X150943885Y-57994857D01*
X151277219Y-57090095D02*
X151277219Y-57661523D01*
X151277219Y-57375809D02*
X150277219Y-57375809D01*
X150277219Y-57375809D02*
X150420076Y-57471047D01*
X150420076Y-57471047D02*
X150515314Y-57566285D01*
X150515314Y-57566285D02*
X150562933Y-57661523D01*
X138634875Y-75671580D02*
X138587256Y-75719200D01*
X138587256Y-75719200D02*
X138444399Y-75766819D01*
X138444399Y-75766819D02*
X138349161Y-75766819D01*
X138349161Y-75766819D02*
X138206304Y-75719200D01*
X138206304Y-75719200D02*
X138111066Y-75623961D01*
X138111066Y-75623961D02*
X138063447Y-75528723D01*
X138063447Y-75528723D02*
X138015828Y-75338247D01*
X138015828Y-75338247D02*
X138015828Y-75195390D01*
X138015828Y-75195390D02*
X138063447Y-75004914D01*
X138063447Y-75004914D02*
X138111066Y-74909676D01*
X138111066Y-74909676D02*
X138206304Y-74814438D01*
X138206304Y-74814438D02*
X138349161Y-74766819D01*
X138349161Y-74766819D02*
X138444399Y-74766819D01*
X138444399Y-74766819D02*
X138587256Y-74814438D01*
X138587256Y-74814438D02*
X138634875Y-74862057D01*
X139206304Y-75766819D02*
X139111066Y-75719200D01*
X139111066Y-75719200D02*
X139063447Y-75671580D01*
X139063447Y-75671580D02*
X139015828Y-75576342D01*
X139015828Y-75576342D02*
X139015828Y-75290628D01*
X139015828Y-75290628D02*
X139063447Y-75195390D01*
X139063447Y-75195390D02*
X139111066Y-75147771D01*
X139111066Y-75147771D02*
X139206304Y-75100152D01*
X139206304Y-75100152D02*
X139349161Y-75100152D01*
X139349161Y-75100152D02*
X139444399Y-75147771D01*
X139444399Y-75147771D02*
X139492018Y-75195390D01*
X139492018Y-75195390D02*
X139539637Y-75290628D01*
X139539637Y-75290628D02*
X139539637Y-75576342D01*
X139539637Y-75576342D02*
X139492018Y-75671580D01*
X139492018Y-75671580D02*
X139444399Y-75719200D01*
X139444399Y-75719200D02*
X139349161Y-75766819D01*
X139349161Y-75766819D02*
X139206304Y-75766819D01*
X139968209Y-75100152D02*
X139968209Y-75766819D01*
X139968209Y-75195390D02*
X140015828Y-75147771D01*
X140015828Y-75147771D02*
X140111066Y-75100152D01*
X140111066Y-75100152D02*
X140253923Y-75100152D01*
X140253923Y-75100152D02*
X140349161Y-75147771D01*
X140349161Y-75147771D02*
X140396780Y-75243009D01*
X140396780Y-75243009D02*
X140396780Y-75766819D01*
X140872971Y-75100152D02*
X140872971Y-75766819D01*
X140872971Y-75195390D02*
X140920590Y-75147771D01*
X140920590Y-75147771D02*
X141015828Y-75100152D01*
X141015828Y-75100152D02*
X141158685Y-75100152D01*
X141158685Y-75100152D02*
X141253923Y-75147771D01*
X141253923Y-75147771D02*
X141301542Y-75243009D01*
X141301542Y-75243009D02*
X141301542Y-75766819D01*
X141539638Y-75862057D02*
X142301542Y-75862057D01*
X142730114Y-74766819D02*
X142825352Y-74766819D01*
X142825352Y-74766819D02*
X142920590Y-74814438D01*
X142920590Y-74814438D02*
X142968209Y-74862057D01*
X142968209Y-74862057D02*
X143015828Y-74957295D01*
X143015828Y-74957295D02*
X143063447Y-75147771D01*
X143063447Y-75147771D02*
X143063447Y-75385866D01*
X143063447Y-75385866D02*
X143015828Y-75576342D01*
X143015828Y-75576342D02*
X142968209Y-75671580D01*
X142968209Y-75671580D02*
X142920590Y-75719200D01*
X142920590Y-75719200D02*
X142825352Y-75766819D01*
X142825352Y-75766819D02*
X142730114Y-75766819D01*
X142730114Y-75766819D02*
X142634876Y-75719200D01*
X142634876Y-75719200D02*
X142587257Y-75671580D01*
X142587257Y-75671580D02*
X142539638Y-75576342D01*
X142539638Y-75576342D02*
X142492019Y-75385866D01*
X142492019Y-75385866D02*
X142492019Y-75147771D01*
X142492019Y-75147771D02*
X142539638Y-74957295D01*
X142539638Y-74957295D02*
X142587257Y-74862057D01*
X142587257Y-74862057D02*
X142634876Y-74814438D01*
X142634876Y-74814438D02*
X142730114Y-74766819D01*
X144015828Y-75766819D02*
X143444400Y-75766819D01*
X143730114Y-75766819D02*
X143730114Y-74766819D01*
X143730114Y-74766819D02*
X143634876Y-74909676D01*
X143634876Y-74909676D02*
X143539638Y-75004914D01*
X143539638Y-75004914D02*
X143444400Y-75052533D01*
X144349162Y-75766819D02*
X144872971Y-75100152D01*
X144349162Y-75100152D02*
X144872971Y-75766819D01*
X145444400Y-74766819D02*
X145539638Y-74766819D01*
X145539638Y-74766819D02*
X145634876Y-74814438D01*
X145634876Y-74814438D02*
X145682495Y-74862057D01*
X145682495Y-74862057D02*
X145730114Y-74957295D01*
X145730114Y-74957295D02*
X145777733Y-75147771D01*
X145777733Y-75147771D02*
X145777733Y-75385866D01*
X145777733Y-75385866D02*
X145730114Y-75576342D01*
X145730114Y-75576342D02*
X145682495Y-75671580D01*
X145682495Y-75671580D02*
X145634876Y-75719200D01*
X145634876Y-75719200D02*
X145539638Y-75766819D01*
X145539638Y-75766819D02*
X145444400Y-75766819D01*
X145444400Y-75766819D02*
X145349162Y-75719200D01*
X145349162Y-75719200D02*
X145301543Y-75671580D01*
X145301543Y-75671580D02*
X145253924Y-75576342D01*
X145253924Y-75576342D02*
X145206305Y-75385866D01*
X145206305Y-75385866D02*
X145206305Y-75147771D01*
X145206305Y-75147771D02*
X145253924Y-74957295D01*
X145253924Y-74957295D02*
X145301543Y-74862057D01*
X145301543Y-74862057D02*
X145349162Y-74814438D01*
X145349162Y-74814438D02*
X145444400Y-74766819D01*
X146158686Y-74862057D02*
X146206305Y-74814438D01*
X146206305Y-74814438D02*
X146301543Y-74766819D01*
X146301543Y-74766819D02*
X146539638Y-74766819D01*
X146539638Y-74766819D02*
X146634876Y-74814438D01*
X146634876Y-74814438D02*
X146682495Y-74862057D01*
X146682495Y-74862057D02*
X146730114Y-74957295D01*
X146730114Y-74957295D02*
X146730114Y-75052533D01*
X146730114Y-75052533D02*
X146682495Y-75195390D01*
X146682495Y-75195390D02*
X146111067Y-75766819D01*
X146111067Y-75766819D02*
X146730114Y-75766819D01*
X146920591Y-75862057D02*
X147682495Y-75862057D01*
X147920591Y-75766819D02*
X147920591Y-74766819D01*
X147920591Y-74766819D02*
X148301543Y-74766819D01*
X148301543Y-74766819D02*
X148396781Y-74814438D01*
X148396781Y-74814438D02*
X148444400Y-74862057D01*
X148444400Y-74862057D02*
X148492019Y-74957295D01*
X148492019Y-74957295D02*
X148492019Y-75100152D01*
X148492019Y-75100152D02*
X148444400Y-75195390D01*
X148444400Y-75195390D02*
X148396781Y-75243009D01*
X148396781Y-75243009D02*
X148301543Y-75290628D01*
X148301543Y-75290628D02*
X147920591Y-75290628D01*
X148920591Y-75766819D02*
X148920591Y-75100152D01*
X148920591Y-74766819D02*
X148872972Y-74814438D01*
X148872972Y-74814438D02*
X148920591Y-74862057D01*
X148920591Y-74862057D02*
X148968210Y-74814438D01*
X148968210Y-74814438D02*
X148920591Y-74766819D01*
X148920591Y-74766819D02*
X148920591Y-74862057D01*
X149396781Y-75100152D02*
X149396781Y-75766819D01*
X149396781Y-75195390D02*
X149444400Y-75147771D01*
X149444400Y-75147771D02*
X149539638Y-75100152D01*
X149539638Y-75100152D02*
X149682495Y-75100152D01*
X149682495Y-75100152D02*
X149777733Y-75147771D01*
X149777733Y-75147771D02*
X149825352Y-75243009D01*
X149825352Y-75243009D02*
X149825352Y-75766819D01*
X143134876Y-76666819D02*
X143134876Y-77381104D01*
X143134876Y-77381104D02*
X143087257Y-77523961D01*
X143087257Y-77523961D02*
X142992019Y-77619200D01*
X142992019Y-77619200D02*
X142849162Y-77666819D01*
X142849162Y-77666819D02*
X142753924Y-77666819D01*
X144134876Y-77666819D02*
X143563448Y-77666819D01*
X143849162Y-77666819D02*
X143849162Y-76666819D01*
X143849162Y-76666819D02*
X143753924Y-76809676D01*
X143753924Y-76809676D02*
X143658686Y-76904914D01*
X143658686Y-76904914D02*
X143563448Y-76952533D01*
X144515829Y-76762057D02*
X144563448Y-76714438D01*
X144563448Y-76714438D02*
X144658686Y-76666819D01*
X144658686Y-76666819D02*
X144896781Y-76666819D01*
X144896781Y-76666819D02*
X144992019Y-76714438D01*
X144992019Y-76714438D02*
X145039638Y-76762057D01*
X145039638Y-76762057D02*
X145087257Y-76857295D01*
X145087257Y-76857295D02*
X145087257Y-76952533D01*
X145087257Y-76952533D02*
X145039638Y-77095390D01*
X145039638Y-77095390D02*
X144468210Y-77666819D01*
X144468210Y-77666819D02*
X145087257Y-77666819D01*
D12*
X188895549Y-67166333D02*
X188657454Y-67332999D01*
X188895549Y-67452047D02*
X188395549Y-67452047D01*
X188395549Y-67452047D02*
X188395549Y-67261571D01*
X188395549Y-67261571D02*
X188419359Y-67213952D01*
X188419359Y-67213952D02*
X188443168Y-67190142D01*
X188443168Y-67190142D02*
X188490787Y-67166333D01*
X188490787Y-67166333D02*
X188562216Y-67166333D01*
X188562216Y-67166333D02*
X188609835Y-67190142D01*
X188609835Y-67190142D02*
X188633644Y-67213952D01*
X188633644Y-67213952D02*
X188657454Y-67261571D01*
X188657454Y-67261571D02*
X188657454Y-67452047D01*
X188395549Y-66737761D02*
X188395549Y-66832999D01*
X188395549Y-66832999D02*
X188419359Y-66880618D01*
X188419359Y-66880618D02*
X188443168Y-66904428D01*
X188443168Y-66904428D02*
X188514597Y-66952047D01*
X188514597Y-66952047D02*
X188609835Y-66975856D01*
X188609835Y-66975856D02*
X188800311Y-66975856D01*
X188800311Y-66975856D02*
X188847930Y-66952047D01*
X188847930Y-66952047D02*
X188871740Y-66928237D01*
X188871740Y-66928237D02*
X188895549Y-66880618D01*
X188895549Y-66880618D02*
X188895549Y-66785380D01*
X188895549Y-66785380D02*
X188871740Y-66737761D01*
X188871740Y-66737761D02*
X188847930Y-66713952D01*
X188847930Y-66713952D02*
X188800311Y-66690142D01*
X188800311Y-66690142D02*
X188681263Y-66690142D01*
X188681263Y-66690142D02*
X188633644Y-66713952D01*
X188633644Y-66713952D02*
X188609835Y-66737761D01*
X188609835Y-66737761D02*
X188586025Y-66785380D01*
X188586025Y-66785380D02*
X188586025Y-66880618D01*
X188586025Y-66880618D02*
X188609835Y-66928237D01*
X188609835Y-66928237D02*
X188633644Y-66952047D01*
X188633644Y-66952047D02*
X188681263Y-66975856D01*
X140086971Y-46831649D02*
X139920305Y-46593554D01*
X139801257Y-46831649D02*
X139801257Y-46331649D01*
X139801257Y-46331649D02*
X139991733Y-46331649D01*
X139991733Y-46331649D02*
X140039352Y-46355459D01*
X140039352Y-46355459D02*
X140063162Y-46379268D01*
X140063162Y-46379268D02*
X140086971Y-46426887D01*
X140086971Y-46426887D02*
X140086971Y-46498316D01*
X140086971Y-46498316D02*
X140063162Y-46545935D01*
X140063162Y-46545935D02*
X140039352Y-46569744D01*
X140039352Y-46569744D02*
X139991733Y-46593554D01*
X139991733Y-46593554D02*
X139801257Y-46593554D01*
X140515543Y-46498316D02*
X140515543Y-46831649D01*
X140396495Y-46307840D02*
X140277448Y-46664982D01*
X140277448Y-46664982D02*
X140586971Y-46664982D01*
X140729828Y-46331649D02*
X141039352Y-46331649D01*
X141039352Y-46331649D02*
X140872685Y-46522125D01*
X140872685Y-46522125D02*
X140944114Y-46522125D01*
X140944114Y-46522125D02*
X140991733Y-46545935D01*
X140991733Y-46545935D02*
X141015542Y-46569744D01*
X141015542Y-46569744D02*
X141039352Y-46617363D01*
X141039352Y-46617363D02*
X141039352Y-46736411D01*
X141039352Y-46736411D02*
X141015542Y-46784030D01*
X141015542Y-46784030D02*
X140991733Y-46807840D01*
X140991733Y-46807840D02*
X140944114Y-46831649D01*
X140944114Y-46831649D02*
X140801257Y-46831649D01*
X140801257Y-46831649D02*
X140753638Y-46807840D01*
X140753638Y-46807840D02*
X140729828Y-46784030D01*
X162733549Y-38845428D02*
X162495454Y-39012094D01*
X162733549Y-39131142D02*
X162233549Y-39131142D01*
X162233549Y-39131142D02*
X162233549Y-38940666D01*
X162233549Y-38940666D02*
X162257359Y-38893047D01*
X162257359Y-38893047D02*
X162281168Y-38869237D01*
X162281168Y-38869237D02*
X162328787Y-38845428D01*
X162328787Y-38845428D02*
X162400216Y-38845428D01*
X162400216Y-38845428D02*
X162447835Y-38869237D01*
X162447835Y-38869237D02*
X162471644Y-38893047D01*
X162471644Y-38893047D02*
X162495454Y-38940666D01*
X162495454Y-38940666D02*
X162495454Y-39131142D01*
X162400216Y-38416856D02*
X162733549Y-38416856D01*
X162209740Y-38535904D02*
X162566882Y-38654951D01*
X162566882Y-38654951D02*
X162566882Y-38345428D01*
X162233549Y-38059714D02*
X162233549Y-38012095D01*
X162233549Y-38012095D02*
X162257359Y-37964476D01*
X162257359Y-37964476D02*
X162281168Y-37940666D01*
X162281168Y-37940666D02*
X162328787Y-37916857D01*
X162328787Y-37916857D02*
X162424025Y-37893047D01*
X162424025Y-37893047D02*
X162543073Y-37893047D01*
X162543073Y-37893047D02*
X162638311Y-37916857D01*
X162638311Y-37916857D02*
X162685930Y-37940666D01*
X162685930Y-37940666D02*
X162709740Y-37964476D01*
X162709740Y-37964476D02*
X162733549Y-38012095D01*
X162733549Y-38012095D02*
X162733549Y-38059714D01*
X162733549Y-38059714D02*
X162709740Y-38107333D01*
X162709740Y-38107333D02*
X162685930Y-38131142D01*
X162685930Y-38131142D02*
X162638311Y-38154952D01*
X162638311Y-38154952D02*
X162543073Y-38178761D01*
X162543073Y-38178761D02*
X162424025Y-38178761D01*
X162424025Y-38178761D02*
X162328787Y-38154952D01*
X162328787Y-38154952D02*
X162281168Y-38131142D01*
X162281168Y-38131142D02*
X162257359Y-38107333D01*
X162257359Y-38107333D02*
X162233549Y-38059714D01*
X158669549Y-38845428D02*
X158431454Y-39012094D01*
X158669549Y-39131142D02*
X158169549Y-39131142D01*
X158169549Y-39131142D02*
X158169549Y-38940666D01*
X158169549Y-38940666D02*
X158193359Y-38893047D01*
X158193359Y-38893047D02*
X158217168Y-38869237D01*
X158217168Y-38869237D02*
X158264787Y-38845428D01*
X158264787Y-38845428D02*
X158336216Y-38845428D01*
X158336216Y-38845428D02*
X158383835Y-38869237D01*
X158383835Y-38869237D02*
X158407644Y-38893047D01*
X158407644Y-38893047D02*
X158431454Y-38940666D01*
X158431454Y-38940666D02*
X158431454Y-39131142D01*
X158169549Y-38678761D02*
X158169549Y-38369237D01*
X158169549Y-38369237D02*
X158360025Y-38535904D01*
X158360025Y-38535904D02*
X158360025Y-38464475D01*
X158360025Y-38464475D02*
X158383835Y-38416856D01*
X158383835Y-38416856D02*
X158407644Y-38393047D01*
X158407644Y-38393047D02*
X158455263Y-38369237D01*
X158455263Y-38369237D02*
X158574311Y-38369237D01*
X158574311Y-38369237D02*
X158621930Y-38393047D01*
X158621930Y-38393047D02*
X158645740Y-38416856D01*
X158645740Y-38416856D02*
X158669549Y-38464475D01*
X158669549Y-38464475D02*
X158669549Y-38607332D01*
X158669549Y-38607332D02*
X158645740Y-38654951D01*
X158645740Y-38654951D02*
X158621930Y-38678761D01*
X158669549Y-38131142D02*
X158669549Y-38035904D01*
X158669549Y-38035904D02*
X158645740Y-37988285D01*
X158645740Y-37988285D02*
X158621930Y-37964476D01*
X158621930Y-37964476D02*
X158550501Y-37916857D01*
X158550501Y-37916857D02*
X158455263Y-37893047D01*
X158455263Y-37893047D02*
X158264787Y-37893047D01*
X158264787Y-37893047D02*
X158217168Y-37916857D01*
X158217168Y-37916857D02*
X158193359Y-37940666D01*
X158193359Y-37940666D02*
X158169549Y-37988285D01*
X158169549Y-37988285D02*
X158169549Y-38083523D01*
X158169549Y-38083523D02*
X158193359Y-38131142D01*
X158193359Y-38131142D02*
X158217168Y-38154952D01*
X158217168Y-38154952D02*
X158264787Y-38178761D01*
X158264787Y-38178761D02*
X158383835Y-38178761D01*
X158383835Y-38178761D02*
X158431454Y-38154952D01*
X158431454Y-38154952D02*
X158455263Y-38131142D01*
X158455263Y-38131142D02*
X158479073Y-38083523D01*
X158479073Y-38083523D02*
X158479073Y-37988285D01*
X158479073Y-37988285D02*
X158455263Y-37940666D01*
X158455263Y-37940666D02*
X158431454Y-37916857D01*
X158431454Y-37916857D02*
X158383835Y-37893047D01*
X135301549Y-52265928D02*
X135063454Y-52432594D01*
X135301549Y-52551642D02*
X134801549Y-52551642D01*
X134801549Y-52551642D02*
X134801549Y-52361166D01*
X134801549Y-52361166D02*
X134825359Y-52313547D01*
X134825359Y-52313547D02*
X134849168Y-52289737D01*
X134849168Y-52289737D02*
X134896787Y-52265928D01*
X134896787Y-52265928D02*
X134968216Y-52265928D01*
X134968216Y-52265928D02*
X135015835Y-52289737D01*
X135015835Y-52289737D02*
X135039644Y-52313547D01*
X135039644Y-52313547D02*
X135063454Y-52361166D01*
X135063454Y-52361166D02*
X135063454Y-52551642D01*
X134968216Y-51837356D02*
X135301549Y-51837356D01*
X134777740Y-51956404D02*
X135134882Y-52075451D01*
X135134882Y-52075451D02*
X135134882Y-51765928D01*
X134968216Y-51361166D02*
X135301549Y-51361166D01*
X134777740Y-51480214D02*
X135134882Y-51599261D01*
X135134882Y-51599261D02*
X135134882Y-51289738D01*
D10*
X184525066Y-76926819D02*
X184525066Y-77641104D01*
X184525066Y-77641104D02*
X184477447Y-77783961D01*
X184477447Y-77783961D02*
X184382209Y-77879200D01*
X184382209Y-77879200D02*
X184239352Y-77926819D01*
X184239352Y-77926819D02*
X184144114Y-77926819D01*
X185429828Y-77260152D02*
X185429828Y-77926819D01*
X185191733Y-76879200D02*
X184953638Y-77593485D01*
X184953638Y-77593485D02*
X185572685Y-77593485D01*
D12*
X66681066Y-40545149D02*
X66514400Y-40307054D01*
X66395352Y-40545149D02*
X66395352Y-40045149D01*
X66395352Y-40045149D02*
X66585828Y-40045149D01*
X66585828Y-40045149D02*
X66633447Y-40068959D01*
X66633447Y-40068959D02*
X66657257Y-40092768D01*
X66657257Y-40092768D02*
X66681066Y-40140387D01*
X66681066Y-40140387D02*
X66681066Y-40211816D01*
X66681066Y-40211816D02*
X66657257Y-40259435D01*
X66657257Y-40259435D02*
X66633447Y-40283244D01*
X66633447Y-40283244D02*
X66585828Y-40307054D01*
X66585828Y-40307054D02*
X66395352Y-40307054D01*
X67133447Y-40045149D02*
X66895352Y-40045149D01*
X66895352Y-40045149D02*
X66871543Y-40283244D01*
X66871543Y-40283244D02*
X66895352Y-40259435D01*
X66895352Y-40259435D02*
X66942971Y-40235625D01*
X66942971Y-40235625D02*
X67062019Y-40235625D01*
X67062019Y-40235625D02*
X67109638Y-40259435D01*
X67109638Y-40259435D02*
X67133447Y-40283244D01*
X67133447Y-40283244D02*
X67157257Y-40330863D01*
X67157257Y-40330863D02*
X67157257Y-40449911D01*
X67157257Y-40449911D02*
X67133447Y-40497530D01*
X67133447Y-40497530D02*
X67109638Y-40521340D01*
X67109638Y-40521340D02*
X67062019Y-40545149D01*
X67062019Y-40545149D02*
X66942971Y-40545149D01*
X66942971Y-40545149D02*
X66895352Y-40521340D01*
X66895352Y-40521340D02*
X66871543Y-40497530D01*
D10*
X114393219Y-31923523D02*
X115107504Y-31923523D01*
X115107504Y-31923523D02*
X115250361Y-31971142D01*
X115250361Y-31971142D02*
X115345600Y-32066380D01*
X115345600Y-32066380D02*
X115393219Y-32209237D01*
X115393219Y-32209237D02*
X115393219Y-32304475D01*
X115393219Y-30923523D02*
X115393219Y-31494951D01*
X115393219Y-31209237D02*
X114393219Y-31209237D01*
X114393219Y-31209237D02*
X114536076Y-31304475D01*
X114536076Y-31304475D02*
X114631314Y-31399713D01*
X114631314Y-31399713D02*
X114678933Y-31494951D01*
X114393219Y-30304475D02*
X114393219Y-30209237D01*
X114393219Y-30209237D02*
X114440838Y-30113999D01*
X114440838Y-30113999D02*
X114488457Y-30066380D01*
X114488457Y-30066380D02*
X114583695Y-30018761D01*
X114583695Y-30018761D02*
X114774171Y-29971142D01*
X114774171Y-29971142D02*
X115012266Y-29971142D01*
X115012266Y-29971142D02*
X115202742Y-30018761D01*
X115202742Y-30018761D02*
X115297980Y-30066380D01*
X115297980Y-30066380D02*
X115345600Y-30113999D01*
X115345600Y-30113999D02*
X115393219Y-30209237D01*
X115393219Y-30209237D02*
X115393219Y-30304475D01*
X115393219Y-30304475D02*
X115345600Y-30399713D01*
X115345600Y-30399713D02*
X115297980Y-30447332D01*
X115297980Y-30447332D02*
X115202742Y-30494951D01*
X115202742Y-30494951D02*
X115012266Y-30542570D01*
X115012266Y-30542570D02*
X114774171Y-30542570D01*
X114774171Y-30542570D02*
X114583695Y-30494951D01*
X114583695Y-30494951D02*
X114488457Y-30447332D01*
X114488457Y-30447332D02*
X114440838Y-30399713D01*
X114440838Y-30399713D02*
X114393219Y-30304475D01*
X144038219Y-58963094D02*
X143038219Y-58963094D01*
X143038219Y-58963094D02*
X143038219Y-58724999D01*
X143038219Y-58724999D02*
X143085838Y-58582142D01*
X143085838Y-58582142D02*
X143181076Y-58486904D01*
X143181076Y-58486904D02*
X143276314Y-58439285D01*
X143276314Y-58439285D02*
X143466790Y-58391666D01*
X143466790Y-58391666D02*
X143609647Y-58391666D01*
X143609647Y-58391666D02*
X143800123Y-58439285D01*
X143800123Y-58439285D02*
X143895361Y-58486904D01*
X143895361Y-58486904D02*
X143990600Y-58582142D01*
X143990600Y-58582142D02*
X144038219Y-58724999D01*
X144038219Y-58724999D02*
X144038219Y-58963094D01*
X143371552Y-57534523D02*
X144038219Y-57534523D01*
X142990600Y-57772618D02*
X143704885Y-58010713D01*
X143704885Y-58010713D02*
X143704885Y-57391666D01*
X186533305Y-70712819D02*
X186533305Y-69712819D01*
X186533305Y-69712819D02*
X186771400Y-69712819D01*
X186771400Y-69712819D02*
X186914257Y-69760438D01*
X186914257Y-69760438D02*
X187009495Y-69855676D01*
X187009495Y-69855676D02*
X187057114Y-69950914D01*
X187057114Y-69950914D02*
X187104733Y-70141390D01*
X187104733Y-70141390D02*
X187104733Y-70284247D01*
X187104733Y-70284247D02*
X187057114Y-70474723D01*
X187057114Y-70474723D02*
X187009495Y-70569961D01*
X187009495Y-70569961D02*
X186914257Y-70665200D01*
X186914257Y-70665200D02*
X186771400Y-70712819D01*
X186771400Y-70712819D02*
X186533305Y-70712819D01*
X187438067Y-69712819D02*
X188104733Y-69712819D01*
X188104733Y-69712819D02*
X187676162Y-70712819D01*
X202686114Y-52425104D02*
X203162304Y-52425104D01*
X202590876Y-52710819D02*
X202924209Y-51710819D01*
X202924209Y-51710819D02*
X203257542Y-52710819D01*
X204019447Y-52044152D02*
X204019447Y-52710819D01*
X203781352Y-51663200D02*
X203543257Y-52377485D01*
X203543257Y-52377485D02*
X204162304Y-52377485D01*
X202686114Y-76555104D02*
X203162304Y-76555104D01*
X202590876Y-76840819D02*
X202924209Y-75840819D01*
X202924209Y-75840819D02*
X203257542Y-76840819D01*
X203543257Y-75936057D02*
X203590876Y-75888438D01*
X203590876Y-75888438D02*
X203686114Y-75840819D01*
X203686114Y-75840819D02*
X203924209Y-75840819D01*
X203924209Y-75840819D02*
X204019447Y-75888438D01*
X204019447Y-75888438D02*
X204067066Y-75936057D01*
X204067066Y-75936057D02*
X204114685Y-76031295D01*
X204114685Y-76031295D02*
X204114685Y-76126533D01*
X204114685Y-76126533D02*
X204067066Y-76269390D01*
X204067066Y-76269390D02*
X203495638Y-76840819D01*
X203495638Y-76840819D02*
X204114685Y-76840819D01*
D13*
%TO.C,U8*%
X115430400Y-55102000D02*
X115430400Y-60602000D01*
X111030400Y-61602000D02*
X111030400Y-55102000D01*
X111030400Y-55102000D02*
X115430400Y-55102000D01*
%TO.C,U7*%
X115430400Y-45323000D02*
X115430400Y-50823000D01*
X114430400Y-51823000D02*
X111030400Y-51823000D01*
X111030400Y-51823000D02*
X111030400Y-45323000D01*
X111030400Y-45323000D02*
X115430400Y-45323000D01*
%TO.C,U1*%
X186256400Y-45092000D02*
X186256400Y-50292000D01*
X185256400Y-51292000D02*
X180956400Y-51292000D01*
X180956400Y-51292000D02*
X180956400Y-45092000D01*
X180956400Y-45092000D02*
X186256400Y-45092000D01*
D14*
%TO.C,U5*%
X149674320Y-36982980D02*
X145275040Y-36982980D01*
X149674320Y-36982980D02*
X149674320Y-37097280D01*
X145275040Y-36982980D02*
X145275040Y-37097280D01*
X149674320Y-45565640D02*
X149674320Y-45679940D01*
X145275040Y-45565640D02*
X145275040Y-45679940D01*
X149674320Y-45679940D02*
X145275040Y-45679940D01*
D15*
X146350856Y-37630680D02*
G75*
G03*
X145901024Y-37630680I-224916J0D01*
G01*
X145901024Y-37630680D02*
G75*
G03*
X146350856Y-37630680I224916J0D01*
G01*
D13*
%TO.C,R34*%
X178746400Y-61009000D02*
X176746400Y-61009000D01*
X178746400Y-59759000D02*
X178746400Y-61009000D01*
X176746400Y-61009000D02*
X176746400Y-59759000D01*
X176746400Y-59759000D02*
X178746400Y-59759000D01*
%TO.C,D2*%
X138754400Y-52314500D02*
X141554400Y-52314500D01*
X138754400Y-54114500D02*
X138754400Y-52314500D01*
X139404400Y-53214500D02*
X139804400Y-53214500D01*
X140404400Y-53214500D02*
X140904400Y-53214500D01*
X141554400Y-52314500D02*
X141554400Y-54114500D01*
X141554400Y-54114500D02*
X138754400Y-54114500D01*
%TO.C,R7*%
X158442400Y-64448000D02*
X158442400Y-62518000D01*
X157192400Y-62518000D02*
X159692400Y-62518000D01*
X159692400Y-62518000D02*
X159692400Y-56218000D01*
X157192400Y-56218000D02*
X157192400Y-62518000D01*
X159692400Y-56218000D02*
X157192400Y-56218000D01*
X158442400Y-54288000D02*
X158442400Y-56218000D01*
%TO.C,U6*%
X63853150Y-67224250D02*
X63853150Y-53224250D01*
X64853150Y-52224250D02*
X69153150Y-52224250D01*
X69153150Y-52224250D02*
X69153150Y-67224250D01*
X69153150Y-67224250D02*
X63853150Y-67224250D01*
%TO.C,R2*%
X175698400Y-72693000D02*
X173698400Y-72693000D01*
X175698400Y-71443000D02*
X175698400Y-72693000D01*
X173698400Y-72693000D02*
X173698400Y-71443000D01*
X173698400Y-71443000D02*
X175698400Y-71443000D01*
%TO.C,R33*%
X190446400Y-37524000D02*
X188516400Y-37524000D01*
X188516400Y-38774000D02*
X188516400Y-36274000D01*
X188516400Y-36274000D02*
X182216400Y-36274000D01*
X182216400Y-38774000D02*
X188516400Y-38774000D01*
X182216400Y-36274000D02*
X182216400Y-38774000D01*
X180286400Y-37524000D02*
X182216400Y-37524000D01*
%TO.C,J20*%
X171828400Y-29206000D02*
X171828400Y-31706000D01*
X171828400Y-31706000D02*
X174328400Y-31706000D01*
X172238400Y-27496000D02*
X172238400Y-31296000D01*
X172238400Y-31296000D02*
X182238400Y-31296000D01*
X182238400Y-27496000D02*
X172238400Y-27496000D01*
X182238400Y-31296000D02*
X182238400Y-27496000D01*
%TO.C,R10*%
X67408150Y-43859250D02*
X69408150Y-43859250D01*
X67408150Y-45109250D02*
X67408150Y-43859250D01*
X69408150Y-43859250D02*
X69408150Y-45109250D01*
X69408150Y-45109250D02*
X67408150Y-45109250D01*
%TO.C,R4*%
X65494400Y-32073000D02*
X67494400Y-32073000D01*
X65494400Y-33323000D02*
X65494400Y-32073000D01*
X67494400Y-32073000D02*
X67494400Y-33323000D01*
X67494400Y-33323000D02*
X65494400Y-33323000D01*
%TO.C,J6*%
X215990400Y-50776000D02*
X213490400Y-50776000D01*
X213490400Y-50776000D02*
X213490400Y-53276000D01*
X217700400Y-51186000D02*
X213900400Y-51186000D01*
X213900400Y-51186000D02*
X213900400Y-58686000D01*
X217700400Y-58686000D02*
X217700400Y-51186000D01*
X213900400Y-58686000D02*
X217700400Y-58686000D01*
%TO.C,J16*%
X133868400Y-41878000D02*
X136368400Y-41878000D01*
X136368400Y-41878000D02*
X136368400Y-39378000D01*
X132158400Y-41468000D02*
X135958400Y-41468000D01*
X135958400Y-41468000D02*
X135958400Y-26468000D01*
X132158400Y-26468000D02*
X132158400Y-41468000D01*
X135958400Y-26468000D02*
X132158400Y-26468000D01*
D14*
%TO.C,U4*%
X131546340Y-63103010D02*
X131546340Y-58703730D01*
X131546340Y-63103010D02*
X131432040Y-63103010D01*
X131546340Y-58703730D02*
X131432040Y-58703730D01*
X122963680Y-63103010D02*
X122849380Y-63103010D01*
X122963680Y-58703730D02*
X122849380Y-58703730D01*
X122849380Y-63103010D02*
X122849380Y-58703730D01*
D15*
X131123556Y-59554630D02*
G75*
G03*
X130673724Y-59554630I-224916J0D01*
G01*
X130673724Y-59554630D02*
G75*
G03*
X131123556Y-59554630I224916J0D01*
G01*
D13*
%TO.C,R1*%
X185483400Y-66083000D02*
X185483400Y-68083000D01*
X184233400Y-66083000D02*
X185483400Y-66083000D01*
X185483400Y-68083000D02*
X184233400Y-68083000D01*
X184233400Y-68083000D02*
X184233400Y-66083000D01*
%TO.C,R3*%
X67494400Y-38403000D02*
X65494400Y-38403000D01*
X67494400Y-37153000D02*
X67494400Y-38403000D01*
X65494400Y-38403000D02*
X65494400Y-37153000D01*
X65494400Y-37153000D02*
X67494400Y-37153000D01*
%TO.C,R32*%
X186499400Y-54812000D02*
X186499400Y-56812000D01*
X185249400Y-54812000D02*
X186499400Y-54812000D01*
X186499400Y-56812000D02*
X185249400Y-56812000D01*
X185249400Y-56812000D02*
X185249400Y-54812000D01*
%TO.C,A3*%
X41094400Y-33968000D02*
X42364400Y-32698000D01*
X41094400Y-53018000D02*
X41094400Y-33968000D01*
X42364400Y-32698000D02*
X56334400Y-32698000D01*
X56334400Y-32698000D02*
X56334400Y-53018000D01*
X56334400Y-53018000D02*
X41094400Y-53018000D01*
%TO.C,D6*%
X141684400Y-50304500D02*
X138884400Y-50304500D01*
X141684400Y-48504500D02*
X141684400Y-50304500D01*
X141034400Y-49404500D02*
X140634400Y-49404500D01*
X140034400Y-49404500D02*
X139534400Y-49404500D01*
X138884400Y-50304500D02*
X138884400Y-48504500D01*
X138884400Y-48504500D02*
X141684400Y-48504500D01*
%TO.C,D5*%
X179388400Y-71263000D02*
X182188400Y-71263000D01*
X179388400Y-73063000D02*
X179388400Y-71263000D01*
X180038400Y-72163000D02*
X180438400Y-72163000D01*
X181038400Y-72163000D02*
X181538400Y-72163000D01*
X182188400Y-71263000D02*
X182188400Y-73063000D01*
X182188400Y-73063000D02*
X179388400Y-73063000D01*
%TO.C,J23*%
X139550400Y-29206000D02*
X139550400Y-31706000D01*
X139550400Y-31706000D02*
X142050400Y-31706000D01*
X139960400Y-27496000D02*
X139960400Y-31296000D01*
X139960400Y-31296000D02*
X147460400Y-31296000D01*
X147460400Y-27496000D02*
X139960400Y-27496000D01*
X147460400Y-31296000D02*
X147460400Y-27496000D01*
%TO.C,D1*%
X61784400Y-35368000D02*
X61784400Y-32568000D01*
X63584400Y-35368000D02*
X61784400Y-35368000D01*
X62684400Y-34718000D02*
X62684400Y-34318000D01*
X62684400Y-33718000D02*
X62684400Y-33218000D01*
X61784400Y-32568000D02*
X63584400Y-32568000D01*
X63584400Y-32568000D02*
X63584400Y-35368000D01*
%TO.C,J11*%
X135404400Y-78562000D02*
X135404400Y-76062000D01*
X135404400Y-76062000D02*
X132904400Y-76062000D01*
X134994400Y-80272000D02*
X134994400Y-76472000D01*
X134994400Y-76472000D02*
X127494400Y-76472000D01*
X127494400Y-80272000D02*
X134994400Y-80272000D01*
X127494400Y-76472000D02*
X127494400Y-80272000D01*
%TO.C,J19*%
X184020400Y-26666000D02*
X184020400Y-29166000D01*
X184020400Y-29166000D02*
X186520400Y-29166000D01*
X184430400Y-24956000D02*
X184430400Y-28756000D01*
X184430400Y-28756000D02*
X194430400Y-28756000D01*
X194430400Y-24956000D02*
X184430400Y-24956000D01*
X194430400Y-28756000D02*
X194430400Y-24956000D01*
%TO.C,J3*%
X215990400Y-36646000D02*
X213490400Y-36646000D01*
X213490400Y-36646000D02*
X213490400Y-39146000D01*
X217700400Y-37056000D02*
X213900400Y-37056000D01*
X213900400Y-37056000D02*
X213900400Y-49556000D01*
X217700400Y-49556000D02*
X217700400Y-37056000D01*
X213900400Y-49556000D02*
X217700400Y-49556000D01*
%TO.C,J21*%
X159636400Y-29206000D02*
X159636400Y-31706000D01*
X159636400Y-31706000D02*
X162136400Y-31706000D01*
X160046400Y-27496000D02*
X160046400Y-31296000D01*
X160046400Y-31296000D02*
X170046400Y-31296000D01*
X170046400Y-27496000D02*
X160046400Y-27496000D01*
X170046400Y-31296000D02*
X170046400Y-27496000D01*
%TO.C,R36*%
X182961400Y-54812000D02*
X182961400Y-56812000D01*
X181711400Y-54812000D02*
X182961400Y-54812000D01*
X182961400Y-56812000D02*
X181711400Y-56812000D01*
X181711400Y-56812000D02*
X181711400Y-54812000D01*
%TO.C,R37*%
X169110400Y-64448000D02*
X169110400Y-62518000D01*
X167860400Y-62518000D02*
X170360400Y-62518000D01*
X170360400Y-62518000D02*
X170360400Y-56218000D01*
X167860400Y-56218000D02*
X167860400Y-62518000D01*
X170360400Y-56218000D02*
X167860400Y-56218000D01*
X169110400Y-54288000D02*
X169110400Y-56218000D01*
%TO.C,A1*%
X41094400Y-58098000D02*
X42364400Y-56828000D01*
X41094400Y-77148000D02*
X41094400Y-58098000D01*
X42364400Y-56828000D02*
X56334400Y-56828000D01*
X56334400Y-56828000D02*
X56334400Y-77148000D01*
X56334400Y-77148000D02*
X41094400Y-77148000D01*
%TO.C,J5*%
X36124400Y-73628000D02*
X38624400Y-73628000D01*
X38624400Y-73628000D02*
X38624400Y-71128000D01*
X34414400Y-73218000D02*
X38214400Y-73218000D01*
X38214400Y-73218000D02*
X38214400Y-60718000D01*
X34414400Y-60718000D02*
X34414400Y-73218000D01*
X38214400Y-60718000D02*
X34414400Y-60718000D01*
%TO.C,J8*%
X40764400Y-26458000D02*
X40764400Y-28958000D01*
X40764400Y-28958000D02*
X43264400Y-28958000D01*
X41174400Y-24748000D02*
X41174400Y-28548000D01*
X41174400Y-28548000D02*
X48674400Y-28548000D01*
X48674400Y-24748000D02*
X41174400Y-24748000D01*
X48674400Y-28548000D02*
X48674400Y-24748000D01*
%TO.C,R35*%
X181693400Y-62400000D02*
X181693400Y-60400000D01*
X182943400Y-62400000D02*
X181693400Y-62400000D01*
X181693400Y-60400000D02*
X182943400Y-60400000D01*
X182943400Y-60400000D02*
X182943400Y-62400000D01*
%TO.C,R11*%
X72184650Y-50664000D02*
X70184650Y-50664000D01*
X72184650Y-49414000D02*
X72184650Y-50664000D01*
X70184650Y-50664000D02*
X70184650Y-49414000D01*
X70184650Y-49414000D02*
X72184650Y-49414000D01*
%TO.C,J22*%
X149710400Y-29206000D02*
X149710400Y-31706000D01*
X149710400Y-31706000D02*
X152210400Y-31706000D01*
X150120400Y-27496000D02*
X150120400Y-31296000D01*
X150120400Y-31296000D02*
X157620400Y-31296000D01*
X157620400Y-27496000D02*
X150120400Y-27496000D01*
X157620400Y-31296000D02*
X157620400Y-27496000D01*
%TO.C,D3*%
X61784400Y-40448000D02*
X61784400Y-37648000D01*
X63584400Y-40448000D02*
X61784400Y-40448000D01*
X62684400Y-39798000D02*
X62684400Y-39398000D01*
X62684400Y-38798000D02*
X62684400Y-38298000D01*
X61784400Y-37648000D02*
X63584400Y-37648000D01*
X63584400Y-37648000D02*
X63584400Y-40448000D01*
%TO.C,R31*%
X185249400Y-62400000D02*
X185249400Y-60400000D01*
X186499400Y-62400000D02*
X185249400Y-62400000D01*
X185249400Y-60400000D02*
X186499400Y-60400000D01*
X186499400Y-60400000D02*
X186499400Y-62400000D01*
%TO.C,J18*%
X196212400Y-26666000D02*
X196212400Y-29166000D01*
X196212400Y-29166000D02*
X198712400Y-29166000D01*
X196622400Y-24956000D02*
X196622400Y-28756000D01*
X196622400Y-28756000D02*
X206622400Y-28756000D01*
X206622400Y-24956000D02*
X196622400Y-24956000D01*
X206622400Y-28756000D02*
X206622400Y-24956000D01*
%TO.C,J17*%
X123754400Y-42092000D02*
X126254400Y-42092000D01*
X126254400Y-42092000D02*
X126254400Y-39592000D01*
X122044400Y-41682000D02*
X125844400Y-41682000D01*
X125844400Y-41682000D02*
X125844400Y-26682000D01*
X122044400Y-26682000D02*
X122044400Y-41682000D01*
X125844400Y-26682000D02*
X122044400Y-26682000D01*
%TO.C,J9*%
X50924400Y-26458000D02*
X50924400Y-28958000D01*
X50924400Y-28958000D02*
X53424400Y-28958000D01*
X51334400Y-24748000D02*
X51334400Y-28548000D01*
X51334400Y-28548000D02*
X58834400Y-28548000D01*
X58834400Y-24748000D02*
X51334400Y-24748000D01*
X58834400Y-28548000D02*
X58834400Y-24748000D01*
%TO.C,R30*%
X189446400Y-59759000D02*
X191446400Y-59759000D01*
X189446400Y-61009000D02*
X189446400Y-59759000D01*
X191446400Y-59759000D02*
X191446400Y-61009000D01*
X191446400Y-61009000D02*
X189446400Y-61009000D01*
%TO.C,R38*%
X165945400Y-39524000D02*
X165945400Y-37524000D01*
X167195400Y-39524000D02*
X165945400Y-39524000D01*
X165945400Y-37524000D02*
X167195400Y-37524000D01*
X167195400Y-37524000D02*
X167195400Y-39524000D01*
%TO.C,J7*%
X36124400Y-49498000D02*
X38624400Y-49498000D01*
X38624400Y-49498000D02*
X38624400Y-46998000D01*
X34414400Y-49088000D02*
X38214400Y-49088000D01*
X38214400Y-49088000D02*
X38214400Y-36588000D01*
X34414400Y-36588000D02*
X34414400Y-49088000D01*
X38214400Y-36588000D02*
X34414400Y-36588000D01*
%TO.C,U3*%
X159800400Y-49133000D02*
X159800400Y-43933000D01*
X160800400Y-42933000D02*
X165100400Y-42933000D01*
X165100400Y-42933000D02*
X165100400Y-49133000D01*
X165100400Y-49133000D02*
X159800400Y-49133000D01*
%TO.C,R42*%
X135598400Y-59251000D02*
X137598400Y-59251000D01*
X135598400Y-60501000D02*
X135598400Y-59251000D01*
X137598400Y-59251000D02*
X137598400Y-60501000D01*
X137598400Y-60501000D02*
X135598400Y-60501000D01*
%TO.C,R12*%
X68034400Y-47059000D02*
X70034400Y-47059000D01*
X68034400Y-48309000D02*
X68034400Y-47059000D01*
X70034400Y-47059000D02*
X70034400Y-48309000D01*
X70034400Y-48309000D02*
X68034400Y-48309000D01*
%TO.C,J2*%
X215990400Y-60776000D02*
X213490400Y-60776000D01*
X213490400Y-60776000D02*
X213490400Y-63276000D01*
X217700400Y-61186000D02*
X213900400Y-61186000D01*
X213900400Y-61186000D02*
X213900400Y-73686000D01*
X217700400Y-73686000D02*
X217700400Y-61186000D01*
X213900400Y-73686000D02*
X217700400Y-73686000D01*
%TO.C,R41*%
X150822400Y-63432000D02*
X150822400Y-61502000D01*
X149572400Y-61502000D02*
X152072400Y-61502000D01*
X152072400Y-61502000D02*
X152072400Y-55202000D01*
X149572400Y-55202000D02*
X149572400Y-61502000D01*
X152072400Y-55202000D02*
X149572400Y-55202000D01*
X150822400Y-53272000D02*
X150822400Y-55202000D01*
%TO.C,J12*%
X148104400Y-78602000D02*
X148104400Y-76102000D01*
X148104400Y-76102000D02*
X145604400Y-76102000D01*
X147694400Y-80312000D02*
X147694400Y-76512000D01*
X147694400Y-76512000D02*
X140194400Y-76512000D01*
X140194400Y-80312000D02*
X147694400Y-80312000D01*
X140194400Y-76512000D02*
X140194400Y-80312000D01*
%TO.C,R6*%
X188043400Y-68083000D02*
X188043400Y-66083000D01*
X189293400Y-68083000D02*
X188043400Y-68083000D01*
X188043400Y-66083000D02*
X189293400Y-66083000D01*
X189293400Y-66083000D02*
X189293400Y-68083000D01*
%TO.C,R43*%
X141408400Y-47229500D02*
X139408400Y-47229500D01*
X141408400Y-45979500D02*
X141408400Y-47229500D01*
X139408400Y-47229500D02*
X139408400Y-45979500D01*
X139408400Y-45979500D02*
X141408400Y-45979500D01*
%TO.C,R40*%
X163131400Y-37524000D02*
X163131400Y-39524000D01*
X161881400Y-37524000D02*
X163131400Y-37524000D01*
X163131400Y-39524000D02*
X161881400Y-39524000D01*
X161881400Y-39524000D02*
X161881400Y-37524000D01*
%TO.C,R39*%
X159067400Y-37524000D02*
X159067400Y-39524000D01*
X157817400Y-37524000D02*
X159067400Y-37524000D01*
X159067400Y-39524000D02*
X157817400Y-39524000D01*
X157817400Y-39524000D02*
X157817400Y-37524000D01*
%TO.C,R44*%
X134449400Y-52944500D02*
X134449400Y-50944500D01*
X135699400Y-52944500D02*
X134449400Y-52944500D01*
X134449400Y-50944500D02*
X135699400Y-50944500D01*
X135699400Y-50944500D02*
X135699400Y-52944500D01*
%TO.C,J4*%
X189018400Y-78862000D02*
X189018400Y-76362000D01*
X189018400Y-76362000D02*
X186518400Y-76362000D01*
X188608400Y-80572000D02*
X188608400Y-76772000D01*
X188608400Y-76772000D02*
X181108400Y-76772000D01*
X181108400Y-80572000D02*
X188608400Y-80572000D01*
X181108400Y-76772000D02*
X181108400Y-80572000D01*
%TO.C,R5*%
X65764400Y-39693000D02*
X67764400Y-39693000D01*
X65764400Y-40943000D02*
X65764400Y-39693000D01*
X67764400Y-39693000D02*
X67764400Y-40943000D01*
X67764400Y-40943000D02*
X65764400Y-40943000D01*
%TO.C,J10*%
X113548400Y-37774000D02*
X116048400Y-37774000D01*
X116048400Y-37774000D02*
X116048400Y-35274000D01*
X111838400Y-37364000D02*
X115638400Y-37364000D01*
X115638400Y-37364000D02*
X115638400Y-24864000D01*
X111838400Y-24864000D02*
X111838400Y-37364000D01*
X115638400Y-24864000D02*
X111838400Y-24864000D01*
%TO.C,D4*%
X142578400Y-56952000D02*
X142578400Y-59752000D01*
X140778400Y-56952000D02*
X142578400Y-56952000D01*
X141678400Y-57602000D02*
X141678400Y-58002000D01*
X141678400Y-58602000D02*
X141678400Y-59102000D01*
X142578400Y-59752000D02*
X140778400Y-59752000D01*
X140778400Y-59752000D02*
X140778400Y-56952000D01*
%TO.C,D7*%
X185998400Y-71263000D02*
X188798400Y-71263000D01*
X185998400Y-73063000D02*
X185998400Y-71263000D01*
X186648400Y-72163000D02*
X187048400Y-72163000D01*
X187648400Y-72163000D02*
X188148400Y-72163000D01*
X188798400Y-71263000D02*
X188798400Y-73063000D01*
X188798400Y-73063000D02*
X185998400Y-73063000D01*
%TO.C,A4*%
X211020400Y-52256000D02*
X209750400Y-53526000D01*
X211020400Y-33206000D02*
X211020400Y-52256000D01*
X209750400Y-53526000D02*
X195780400Y-53526000D01*
X195780400Y-53526000D02*
X195780400Y-33206000D01*
X195780400Y-33206000D02*
X211020400Y-33206000D01*
%TO.C,A2*%
X211020400Y-76386000D02*
X209750400Y-77656000D01*
X211020400Y-57336000D02*
X211020400Y-76386000D01*
X209750400Y-77656000D02*
X195780400Y-77656000D01*
X195780400Y-77656000D02*
X195780400Y-57336000D01*
X195780400Y-57336000D02*
X211020400Y-57336000D01*
%TD*%
M02*
