%TF.GenerationSoftware,KiCad,Pcbnew,7.0.10*%
%TF.CreationDate,2024-09-26T22:41:12+03:00*%
%TF.ProjectId,Ver1,56657231-2e6b-4696-9361-645f70636258,rev?*%
%TF.SameCoordinates,Original*%
%TF.FileFunction,Soldermask,Top*%
%TF.FilePolarity,Negative*%
%FSLAX46Y46*%
G04 Gerber Fmt 4.6, Leading zero omitted, Abs format (unit mm)*
G04 Created by KiCad (PCBNEW 7.0.10) date 2024-09-26 22:41:12*
%MOMM*%
%LPD*%
G01*
G04 APERTURE LIST*
G04 Aperture macros list*
%AMRoundRect*
0 Rectangle with rounded corners*
0 $1 Rounding radius*
0 $2 $3 $4 $5 $6 $7 $8 $9 X,Y pos of 4 corners*
0 Add a 4 corners polygon primitive as box body*
4,1,4,$2,$3,$4,$5,$6,$7,$8,$9,$2,$3,0*
0 Add four circle primitives for the rounded corners*
1,1,$1+$1,$2,$3*
1,1,$1+$1,$4,$5*
1,1,$1+$1,$6,$7*
1,1,$1+$1,$8,$9*
0 Add four rect primitives between the rounded corners*
20,1,$1+$1,$2,$3,$4,$5,0*
20,1,$1+$1,$4,$5,$6,$7,0*
20,1,$1+$1,$6,$7,$8,$9,0*
20,1,$1+$1,$8,$9,$2,$3,0*%
G04 Aperture macros list end*
%ADD10RoundRect,0.100000X0.637500X0.100000X-0.637500X0.100000X-0.637500X-0.100000X0.637500X-0.100000X0*%
%ADD11RoundRect,0.150000X0.800000X0.150000X-0.800000X0.150000X-0.800000X-0.150000X0.800000X-0.150000X0*%
%ADD12R,1.597660X0.698500*%
%ADD13RoundRect,0.250000X0.350000X0.450000X-0.350000X0.450000X-0.350000X-0.450000X0.350000X-0.450000X0*%
%ADD14RoundRect,0.250000X-0.300000X-0.300000X0.300000X-0.300000X0.300000X0.300000X-0.300000X0.300000X0*%
%ADD15C,1.600000*%
%ADD16O,1.600000X1.600000*%
%ADD17RoundRect,0.150000X-0.837500X-0.150000X0.837500X-0.150000X0.837500X0.150000X-0.837500X0.150000X0*%
%ADD18RoundRect,0.250000X-0.600000X-0.725000X0.600000X-0.725000X0.600000X0.725000X-0.600000X0.725000X0*%
%ADD19O,1.700000X1.950000*%
%ADD20RoundRect,0.250000X-0.350000X-0.450000X0.350000X-0.450000X0.350000X0.450000X-0.350000X0.450000X0*%
%ADD21RoundRect,0.250000X-0.750000X0.600000X-0.750000X-0.600000X0.750000X-0.600000X0.750000X0.600000X0*%
%ADD22O,2.000000X1.700000*%
%ADD23RoundRect,0.250000X0.725000X-0.600000X0.725000X0.600000X-0.725000X0.600000X-0.725000X-0.600000X0*%
%ADD24O,1.950000X1.700000*%
%ADD25R,0.698500X1.597660*%
%ADD26RoundRect,0.250000X-0.450000X0.350000X-0.450000X-0.350000X0.450000X-0.350000X0.450000X0.350000X0*%
%ADD27R,1.600000X1.600000*%
%ADD28RoundRect,0.250000X0.300000X0.300000X-0.300000X0.300000X-0.300000X-0.300000X0.300000X-0.300000X0*%
%ADD29RoundRect,0.250000X-0.600000X-0.750000X0.600000X-0.750000X0.600000X0.750000X-0.600000X0.750000X0*%
%ADD30O,1.700000X2.000000*%
%ADD31RoundRect,0.250000X0.300000X-0.300000X0.300000X0.300000X-0.300000X0.300000X-0.300000X-0.300000X0*%
%ADD32RoundRect,0.250000X0.600000X0.750000X-0.600000X0.750000X-0.600000X-0.750000X0.600000X-0.750000X0*%
%ADD33RoundRect,0.250000X-0.725000X0.600000X-0.725000X-0.600000X0.725000X-0.600000X0.725000X0.600000X0*%
%ADD34RoundRect,0.250000X0.450000X-0.350000X0.450000X0.350000X-0.450000X0.350000X-0.450000X-0.350000X0*%
%ADD35RoundRect,0.150000X-0.800000X-0.150000X0.800000X-0.150000X0.800000X0.150000X-0.800000X0.150000X0*%
%ADD36C,2.000000*%
%ADD37RoundRect,0.250000X-0.300000X0.300000X-0.300000X-0.300000X0.300000X-0.300000X0.300000X0.300000X0*%
G04 APERTURE END LIST*
D10*
%TO.C,U8*%
X116092900Y-61277000D03*
X116092900Y-60627000D03*
X116092900Y-59977000D03*
X116092900Y-59327000D03*
X116092900Y-58677000D03*
X116092900Y-58027000D03*
X116092900Y-57377000D03*
X116092900Y-56727000D03*
X116092900Y-56077000D03*
X116092900Y-55427000D03*
X110367900Y-55427000D03*
X110367900Y-56077000D03*
X110367900Y-56727000D03*
X110367900Y-57377000D03*
X110367900Y-58027000D03*
X110367900Y-58677000D03*
X110367900Y-59327000D03*
X110367900Y-59977000D03*
X110367900Y-60627000D03*
X110367900Y-61277000D03*
%TD*%
%TO.C,U7*%
X116092900Y-51498000D03*
X116092900Y-50848000D03*
X116092900Y-50198000D03*
X116092900Y-49548000D03*
X116092900Y-48898000D03*
X116092900Y-48248000D03*
X116092900Y-47598000D03*
X116092900Y-46948000D03*
X116092900Y-46298000D03*
X116092900Y-45648000D03*
X110367900Y-45648000D03*
X110367900Y-46298000D03*
X110367900Y-46948000D03*
X110367900Y-47598000D03*
X110367900Y-48248000D03*
X110367900Y-48898000D03*
X110367900Y-49548000D03*
X110367900Y-50198000D03*
X110367900Y-50848000D03*
X110367900Y-51498000D03*
%TD*%
D11*
%TO.C,U1*%
X187106400Y-50097000D03*
X187106400Y-48827000D03*
X187106400Y-47557000D03*
X187106400Y-46287000D03*
X180106400Y-46287000D03*
X180106400Y-47557000D03*
X180106400Y-48827000D03*
X180106400Y-50097000D03*
%TD*%
D12*
%TO.C,U5*%
X144726400Y-37524000D03*
X144726400Y-38794000D03*
X144726400Y-40064000D03*
X144726400Y-41331460D03*
X144726400Y-42598920D03*
X144726400Y-43868920D03*
X144726400Y-45138920D03*
X150222960Y-45138920D03*
X150222960Y-43868920D03*
X150222960Y-42598920D03*
X150222960Y-41331460D03*
X150222960Y-40064000D03*
X150222960Y-38794000D03*
X150222960Y-37524000D03*
%TD*%
D13*
%TO.C,R34*%
X178746400Y-60384000D03*
X176746400Y-60384000D03*
%TD*%
D14*
%TO.C,D2*%
X138754400Y-53214500D03*
X141554400Y-53214500D03*
%TD*%
D15*
%TO.C,R7*%
X158442400Y-64448000D03*
D16*
X158442400Y-54288000D03*
%TD*%
D17*
%TO.C,U6*%
X63040650Y-52739250D03*
X63040650Y-54009250D03*
X63040650Y-55279250D03*
X63040650Y-56549250D03*
X63040650Y-57819250D03*
X63040650Y-59089250D03*
X63040650Y-60359250D03*
X63040650Y-61629250D03*
X63040650Y-62899250D03*
X63040650Y-64169250D03*
X63040650Y-65439250D03*
X63040650Y-66709250D03*
X69965650Y-66709250D03*
X69965650Y-65439250D03*
X69965650Y-64169250D03*
X69965650Y-62899250D03*
X69965650Y-61629250D03*
X69965650Y-60359250D03*
X69965650Y-59089250D03*
X69965650Y-57819250D03*
X69965650Y-56549250D03*
X69965650Y-55279250D03*
X69965650Y-54009250D03*
X69965650Y-52739250D03*
%TD*%
D13*
%TO.C,R2*%
X175698400Y-72068000D03*
X173698400Y-72068000D03*
%TD*%
D15*
%TO.C,R33*%
X190446400Y-37524000D03*
D16*
X180286400Y-37524000D03*
%TD*%
D18*
%TO.C,J20*%
X174738400Y-29096000D03*
D19*
X177238400Y-29096000D03*
X179738400Y-29096000D03*
%TD*%
D20*
%TO.C,R10*%
X67408150Y-44484250D03*
X69408150Y-44484250D03*
%TD*%
%TO.C,R4*%
X65494400Y-32698000D03*
X67494400Y-32698000D03*
%TD*%
D21*
%TO.C,J6*%
X216100400Y-53686000D03*
D22*
X216100400Y-56186000D03*
%TD*%
D23*
%TO.C,J16*%
X133758400Y-38968000D03*
D24*
X133758400Y-36468000D03*
X133758400Y-33968000D03*
X133758400Y-31468000D03*
X133758400Y-28968000D03*
%TD*%
D25*
%TO.C,U4*%
X131005320Y-58155090D03*
X129735320Y-58155090D03*
X128465320Y-58155090D03*
X127197860Y-58155090D03*
X125930400Y-58155090D03*
X124660400Y-58155090D03*
X123390400Y-58155090D03*
X123390400Y-63651650D03*
X124660400Y-63651650D03*
X125930400Y-63651650D03*
X127197860Y-63651650D03*
X128465320Y-63651650D03*
X129735320Y-63651650D03*
X131005320Y-63651650D03*
%TD*%
D26*
%TO.C,R1*%
X184858400Y-66083000D03*
X184858400Y-68083000D03*
%TD*%
D13*
%TO.C,R3*%
X67494400Y-37778000D03*
X65494400Y-37778000D03*
%TD*%
D26*
%TO.C,R32*%
X185874400Y-54812000D03*
X185874400Y-56812000D03*
%TD*%
D27*
%TO.C,A3*%
X42364400Y-33968000D03*
D16*
X42364400Y-36508000D03*
X42364400Y-39048000D03*
X42364400Y-41588000D03*
X42364400Y-44128000D03*
X42364400Y-46668000D03*
X42364400Y-49208000D03*
X42364400Y-51748000D03*
X55064400Y-51748000D03*
X55064400Y-49208000D03*
X55064400Y-46668000D03*
X55064400Y-44128000D03*
X55064400Y-41588000D03*
X55064400Y-39048000D03*
X55064400Y-36508000D03*
X55064400Y-33968000D03*
%TD*%
D28*
%TO.C,D6*%
X141684400Y-49404500D03*
X138884400Y-49404500D03*
%TD*%
D14*
%TO.C,D5*%
X179388400Y-72163000D03*
X182188400Y-72163000D03*
%TD*%
D29*
%TO.C,J23*%
X142460400Y-29096000D03*
D30*
X144960400Y-29096000D03*
%TD*%
D31*
%TO.C,D1*%
X62684400Y-35368000D03*
X62684400Y-32568000D03*
%TD*%
D32*
%TO.C,J11*%
X132494400Y-78672000D03*
D30*
X129994400Y-78672000D03*
%TD*%
D18*
%TO.C,J19*%
X186930400Y-26556000D03*
D19*
X189430400Y-26556000D03*
X191930400Y-26556000D03*
%TD*%
D33*
%TO.C,J3*%
X216100400Y-39556000D03*
D24*
X216100400Y-42056000D03*
X216100400Y-44556000D03*
X216100400Y-47056000D03*
%TD*%
D18*
%TO.C,J21*%
X162546400Y-29096000D03*
D19*
X165046400Y-29096000D03*
X167546400Y-29096000D03*
%TD*%
D26*
%TO.C,R36*%
X182336400Y-54812000D03*
X182336400Y-56812000D03*
%TD*%
D15*
%TO.C,R37*%
X169110400Y-64448000D03*
D16*
X169110400Y-54288000D03*
%TD*%
D27*
%TO.C,A1*%
X42364400Y-58098000D03*
D16*
X42364400Y-60638000D03*
X42364400Y-63178000D03*
X42364400Y-65718000D03*
X42364400Y-68258000D03*
X42364400Y-70798000D03*
X42364400Y-73338000D03*
X42364400Y-75878000D03*
X55064400Y-75878000D03*
X55064400Y-73338000D03*
X55064400Y-70798000D03*
X55064400Y-68258000D03*
X55064400Y-65718000D03*
X55064400Y-63178000D03*
X55064400Y-60638000D03*
X55064400Y-58098000D03*
%TD*%
D23*
%TO.C,J5*%
X36014400Y-70718000D03*
D24*
X36014400Y-68218000D03*
X36014400Y-65718000D03*
X36014400Y-63218000D03*
%TD*%
D29*
%TO.C,J8*%
X43674400Y-26348000D03*
D30*
X46174400Y-26348000D03*
%TD*%
D34*
%TO.C,R35*%
X182318400Y-62400000D03*
X182318400Y-60400000D03*
%TD*%
D13*
%TO.C,R11*%
X72184650Y-50039000D03*
X70184650Y-50039000D03*
%TD*%
D29*
%TO.C,J22*%
X152620400Y-29096000D03*
D30*
X155120400Y-29096000D03*
%TD*%
D31*
%TO.C,D3*%
X62684400Y-40448000D03*
X62684400Y-37648000D03*
%TD*%
D34*
%TO.C,R31*%
X185874400Y-62400000D03*
X185874400Y-60400000D03*
%TD*%
D18*
%TO.C,J18*%
X199122400Y-26556000D03*
D19*
X201622400Y-26556000D03*
X204122400Y-26556000D03*
%TD*%
D23*
%TO.C,J17*%
X123644400Y-39182000D03*
D24*
X123644400Y-36682000D03*
X123644400Y-34182000D03*
X123644400Y-31682000D03*
X123644400Y-29182000D03*
%TD*%
D29*
%TO.C,J9*%
X53834400Y-26348000D03*
D30*
X56334400Y-26348000D03*
%TD*%
D20*
%TO.C,R30*%
X189446400Y-60384000D03*
X191446400Y-60384000D03*
%TD*%
D34*
%TO.C,R38*%
X166570400Y-39524000D03*
X166570400Y-37524000D03*
%TD*%
D23*
%TO.C,J7*%
X36014400Y-46588000D03*
D24*
X36014400Y-44088000D03*
X36014400Y-41588000D03*
X36014400Y-39088000D03*
%TD*%
D35*
%TO.C,U3*%
X158950400Y-44128000D03*
X158950400Y-45398000D03*
X158950400Y-46668000D03*
X158950400Y-47938000D03*
X165950400Y-47938000D03*
X165950400Y-46668000D03*
X165950400Y-45398000D03*
X165950400Y-44128000D03*
%TD*%
D36*
%TO.C,J1*%
X102054400Y-33968000D03*
X102054400Y-36508000D03*
X102054400Y-39048000D03*
X102054400Y-41588000D03*
X102054400Y-44128000D03*
X102054400Y-46668000D03*
X102054400Y-49208000D03*
X102054400Y-51748000D03*
X102054400Y-54288000D03*
X102054400Y-56828000D03*
X102054400Y-59368000D03*
X102054400Y-61908000D03*
X102054400Y-64448000D03*
X102054400Y-66988000D03*
X102054400Y-69528000D03*
X76654400Y-33968000D03*
X76654400Y-36508000D03*
X76654400Y-39048000D03*
X76654400Y-41588000D03*
X76654400Y-44128000D03*
X76654400Y-46668000D03*
X76654400Y-49208000D03*
X76654400Y-51748000D03*
X76654400Y-54288000D03*
X76654400Y-56828000D03*
X76654400Y-59368000D03*
X76654400Y-61908000D03*
X76654400Y-64448000D03*
X76654400Y-66988000D03*
X76654400Y-69528000D03*
%TD*%
D20*
%TO.C,R42*%
X135598400Y-59876000D03*
X137598400Y-59876000D03*
%TD*%
%TO.C,R12*%
X68034400Y-47684000D03*
X70034400Y-47684000D03*
%TD*%
D33*
%TO.C,J2*%
X216100400Y-63686000D03*
D24*
X216100400Y-66186000D03*
X216100400Y-68686000D03*
X216100400Y-71186000D03*
%TD*%
D15*
%TO.C,R41*%
X150822400Y-63432000D03*
D16*
X150822400Y-53272000D03*
%TD*%
D32*
%TO.C,J12*%
X145194400Y-78712000D03*
D30*
X142694400Y-78712000D03*
%TD*%
D34*
%TO.C,R6*%
X188668400Y-68083000D03*
X188668400Y-66083000D03*
%TD*%
D13*
%TO.C,R43*%
X141408400Y-46604500D03*
X139408400Y-46604500D03*
%TD*%
D26*
%TO.C,R40*%
X162506400Y-37524000D03*
X162506400Y-39524000D03*
%TD*%
%TO.C,R39*%
X158442400Y-37524000D03*
X158442400Y-39524000D03*
%TD*%
D34*
%TO.C,R44*%
X135074400Y-52944500D03*
X135074400Y-50944500D03*
%TD*%
D32*
%TO.C,J4*%
X186108400Y-78972000D03*
D30*
X183608400Y-78972000D03*
%TD*%
D20*
%TO.C,R5*%
X65764400Y-40318000D03*
X67764400Y-40318000D03*
%TD*%
D23*
%TO.C,J10*%
X113438400Y-34864000D03*
D24*
X113438400Y-32364000D03*
X113438400Y-29864000D03*
X113438400Y-27364000D03*
%TD*%
D37*
%TO.C,D4*%
X141678400Y-56952000D03*
X141678400Y-59752000D03*
%TD*%
D14*
%TO.C,D7*%
X185998400Y-72163000D03*
X188798400Y-72163000D03*
%TD*%
D27*
%TO.C,A4*%
X209750400Y-52256000D03*
D16*
X209750400Y-49716000D03*
X209750400Y-47176000D03*
X209750400Y-44636000D03*
X209750400Y-42096000D03*
X209750400Y-39556000D03*
X209750400Y-37016000D03*
X209750400Y-34476000D03*
X197050400Y-34476000D03*
X197050400Y-37016000D03*
X197050400Y-39556000D03*
X197050400Y-42096000D03*
X197050400Y-44636000D03*
X197050400Y-47176000D03*
X197050400Y-49716000D03*
X197050400Y-52256000D03*
%TD*%
D27*
%TO.C,A2*%
X209750400Y-76386000D03*
D16*
X209750400Y-73846000D03*
X209750400Y-71306000D03*
X209750400Y-68766000D03*
X209750400Y-66226000D03*
X209750400Y-63686000D03*
X209750400Y-61146000D03*
X209750400Y-58606000D03*
X197050400Y-58606000D03*
X197050400Y-61146000D03*
X197050400Y-63686000D03*
X197050400Y-66226000D03*
X197050400Y-68766000D03*
X197050400Y-71306000D03*
X197050400Y-73846000D03*
X197050400Y-76386000D03*
%TD*%
M02*
