%TF.GenerationSoftware,KiCad,Pcbnew,7.0.10*%
%TF.CreationDate,2024-09-26T22:41:12+03:00*%
%TF.ProjectId,Ver1,56657231-2e6b-4696-9361-645f70636258,rev?*%
%TF.SameCoordinates,Original*%
%TF.FileFunction,Soldermask,Bot*%
%TF.FilePolarity,Negative*%
%FSLAX46Y46*%
G04 Gerber Fmt 4.6, Leading zero omitted, Abs format (unit mm)*
G04 Created by KiCad (PCBNEW 7.0.10) date 2024-09-26 22:41:12*
%MOMM*%
%LPD*%
G01*
G04 APERTURE LIST*
G04 Aperture macros list*
%AMRoundRect*
0 Rectangle with rounded corners*
0 $1 Rounding radius*
0 $2 $3 $4 $5 $6 $7 $8 $9 X,Y pos of 4 corners*
0 Add a 4 corners polygon primitive as box body*
4,1,4,$2,$3,$4,$5,$6,$7,$8,$9,$2,$3,0*
0 Add four circle primitives for the rounded corners*
1,1,$1+$1,$2,$3*
1,1,$1+$1,$4,$5*
1,1,$1+$1,$6,$7*
1,1,$1+$1,$8,$9*
0 Add four rect primitives between the rounded corners*
20,1,$1+$1,$2,$3,$4,$5,0*
20,1,$1+$1,$4,$5,$6,$7,0*
20,1,$1+$1,$6,$7,$8,$9,0*
20,1,$1+$1,$8,$9,$2,$3,0*%
G04 Aperture macros list end*
%ADD10C,1.600000*%
%ADD11O,1.600000X1.600000*%
%ADD12RoundRect,0.250000X-0.600000X-0.725000X0.600000X-0.725000X0.600000X0.725000X-0.600000X0.725000X0*%
%ADD13O,1.700000X1.950000*%
%ADD14RoundRect,0.250000X-0.750000X0.600000X-0.750000X-0.600000X0.750000X-0.600000X0.750000X0.600000X0*%
%ADD15O,2.000000X1.700000*%
%ADD16RoundRect,0.250000X0.725000X-0.600000X0.725000X0.600000X-0.725000X0.600000X-0.725000X-0.600000X0*%
%ADD17O,1.950000X1.700000*%
%ADD18R,1.600000X1.600000*%
%ADD19RoundRect,0.250000X-0.600000X-0.750000X0.600000X-0.750000X0.600000X0.750000X-0.600000X0.750000X0*%
%ADD20O,1.700000X2.000000*%
%ADD21RoundRect,0.250000X0.600000X0.750000X-0.600000X0.750000X-0.600000X-0.750000X0.600000X-0.750000X0*%
%ADD22RoundRect,0.250000X-0.725000X0.600000X-0.725000X-0.600000X0.725000X-0.600000X0.725000X0.600000X0*%
%ADD23C,2.000000*%
G04 APERTURE END LIST*
D10*
%TO.C,R7*%
X158442400Y-64448000D03*
D11*
X158442400Y-54288000D03*
%TD*%
D10*
%TO.C,R33*%
X190446400Y-37524000D03*
D11*
X180286400Y-37524000D03*
%TD*%
D12*
%TO.C,J20*%
X174738400Y-29096000D03*
D13*
X177238400Y-29096000D03*
X179738400Y-29096000D03*
%TD*%
D14*
%TO.C,J6*%
X216100400Y-53686000D03*
D15*
X216100400Y-56186000D03*
%TD*%
D16*
%TO.C,J16*%
X133758400Y-38968000D03*
D17*
X133758400Y-36468000D03*
X133758400Y-33968000D03*
X133758400Y-31468000D03*
X133758400Y-28968000D03*
%TD*%
D18*
%TO.C,A3*%
X42364400Y-33968000D03*
D11*
X42364400Y-36508000D03*
X42364400Y-39048000D03*
X42364400Y-41588000D03*
X42364400Y-44128000D03*
X42364400Y-46668000D03*
X42364400Y-49208000D03*
X42364400Y-51748000D03*
X55064400Y-51748000D03*
X55064400Y-49208000D03*
X55064400Y-46668000D03*
X55064400Y-44128000D03*
X55064400Y-41588000D03*
X55064400Y-39048000D03*
X55064400Y-36508000D03*
X55064400Y-33968000D03*
%TD*%
D19*
%TO.C,J23*%
X142460400Y-29096000D03*
D20*
X144960400Y-29096000D03*
%TD*%
D21*
%TO.C,J11*%
X132494400Y-78672000D03*
D20*
X129994400Y-78672000D03*
%TD*%
D12*
%TO.C,J19*%
X186930400Y-26556000D03*
D13*
X189430400Y-26556000D03*
X191930400Y-26556000D03*
%TD*%
D22*
%TO.C,J3*%
X216100400Y-39556000D03*
D17*
X216100400Y-42056000D03*
X216100400Y-44556000D03*
X216100400Y-47056000D03*
%TD*%
D12*
%TO.C,J21*%
X162546400Y-29096000D03*
D13*
X165046400Y-29096000D03*
X167546400Y-29096000D03*
%TD*%
D10*
%TO.C,R37*%
X169110400Y-64448000D03*
D11*
X169110400Y-54288000D03*
%TD*%
D18*
%TO.C,A1*%
X42364400Y-58098000D03*
D11*
X42364400Y-60638000D03*
X42364400Y-63178000D03*
X42364400Y-65718000D03*
X42364400Y-68258000D03*
X42364400Y-70798000D03*
X42364400Y-73338000D03*
X42364400Y-75878000D03*
X55064400Y-75878000D03*
X55064400Y-73338000D03*
X55064400Y-70798000D03*
X55064400Y-68258000D03*
X55064400Y-65718000D03*
X55064400Y-63178000D03*
X55064400Y-60638000D03*
X55064400Y-58098000D03*
%TD*%
D16*
%TO.C,J5*%
X36014400Y-70718000D03*
D17*
X36014400Y-68218000D03*
X36014400Y-65718000D03*
X36014400Y-63218000D03*
%TD*%
D19*
%TO.C,J8*%
X43674400Y-26348000D03*
D20*
X46174400Y-26348000D03*
%TD*%
D19*
%TO.C,J22*%
X152620400Y-29096000D03*
D20*
X155120400Y-29096000D03*
%TD*%
D12*
%TO.C,J18*%
X199122400Y-26556000D03*
D13*
X201622400Y-26556000D03*
X204122400Y-26556000D03*
%TD*%
D16*
%TO.C,J17*%
X123644400Y-39182000D03*
D17*
X123644400Y-36682000D03*
X123644400Y-34182000D03*
X123644400Y-31682000D03*
X123644400Y-29182000D03*
%TD*%
D19*
%TO.C,J9*%
X53834400Y-26348000D03*
D20*
X56334400Y-26348000D03*
%TD*%
D16*
%TO.C,J7*%
X36014400Y-46588000D03*
D17*
X36014400Y-44088000D03*
X36014400Y-41588000D03*
X36014400Y-39088000D03*
%TD*%
D23*
%TO.C,J1*%
X102054400Y-33968000D03*
X102054400Y-36508000D03*
X102054400Y-39048000D03*
X102054400Y-41588000D03*
X102054400Y-44128000D03*
X102054400Y-46668000D03*
X102054400Y-49208000D03*
X102054400Y-51748000D03*
X102054400Y-54288000D03*
X102054400Y-56828000D03*
X102054400Y-59368000D03*
X102054400Y-61908000D03*
X102054400Y-64448000D03*
X102054400Y-66988000D03*
X102054400Y-69528000D03*
X76654400Y-33968000D03*
X76654400Y-36508000D03*
X76654400Y-39048000D03*
X76654400Y-41588000D03*
X76654400Y-44128000D03*
X76654400Y-46668000D03*
X76654400Y-49208000D03*
X76654400Y-51748000D03*
X76654400Y-54288000D03*
X76654400Y-56828000D03*
X76654400Y-59368000D03*
X76654400Y-61908000D03*
X76654400Y-64448000D03*
X76654400Y-66988000D03*
X76654400Y-69528000D03*
%TD*%
D22*
%TO.C,J2*%
X216100400Y-63686000D03*
D17*
X216100400Y-66186000D03*
X216100400Y-68686000D03*
X216100400Y-71186000D03*
%TD*%
D10*
%TO.C,R41*%
X150822400Y-63432000D03*
D11*
X150822400Y-53272000D03*
%TD*%
D21*
%TO.C,J12*%
X145194400Y-78712000D03*
D20*
X142694400Y-78712000D03*
%TD*%
D21*
%TO.C,J4*%
X186108400Y-78972000D03*
D20*
X183608400Y-78972000D03*
%TD*%
D16*
%TO.C,J10*%
X113438400Y-34864000D03*
D17*
X113438400Y-32364000D03*
X113438400Y-29864000D03*
X113438400Y-27364000D03*
%TD*%
D18*
%TO.C,A4*%
X209750400Y-52256000D03*
D11*
X209750400Y-49716000D03*
X209750400Y-47176000D03*
X209750400Y-44636000D03*
X209750400Y-42096000D03*
X209750400Y-39556000D03*
X209750400Y-37016000D03*
X209750400Y-34476000D03*
X197050400Y-34476000D03*
X197050400Y-37016000D03*
X197050400Y-39556000D03*
X197050400Y-42096000D03*
X197050400Y-44636000D03*
X197050400Y-47176000D03*
X197050400Y-49716000D03*
X197050400Y-52256000D03*
%TD*%
D18*
%TO.C,A2*%
X209750400Y-76386000D03*
D11*
X209750400Y-73846000D03*
X209750400Y-71306000D03*
X209750400Y-68766000D03*
X209750400Y-66226000D03*
X209750400Y-63686000D03*
X209750400Y-61146000D03*
X209750400Y-58606000D03*
X197050400Y-58606000D03*
X197050400Y-61146000D03*
X197050400Y-63686000D03*
X197050400Y-66226000D03*
X197050400Y-68766000D03*
X197050400Y-71306000D03*
X197050400Y-73846000D03*
X197050400Y-76386000D03*
%TD*%
M02*
